<?xml version="1.0" encoding="utf-8" standalone="no"?>
<!DOCTYPE svg PUBLIC "-//W3C//DTD SVG 1.1//EN"
  "http://www.w3.org/Graphics/SVG/1.1/DTD/svg11.dtd">
<!-- Created with matplotlib (https://matplotlib.org/) -->
<svg height="279.929062pt" version="1.1" viewBox="0 0 833.189062 279.929062" width="833.189062pt" xmlns="http://www.w3.org/2000/svg" xmlns:xlink="http://www.w3.org/1999/xlink">
 <metadata>
  <rdf:RDF xmlns:cc="http://creativecommons.org/ns#" xmlns:dc="http://purl.org/dc/elements/1.1/" xmlns:rdf="http://www.w3.org/1999/02/22-rdf-syntax-ns#">
   <cc:Work>
    <dc:type rdf:resource="http://purl.org/dc/dcmitype/StillImage"/>
    <dc:date>2020-10-16T15:48:33.351540</dc:date>
    <dc:format>image/svg+xml</dc:format>
    <dc:creator>
     <cc:Agent>
      <dc:title>Matplotlib v3.3.1, https://matplotlib.org/</dc:title>
     </cc:Agent>
    </dc:creator>
   </cc:Work>
  </rdf:RDF>
 </metadata>
 <defs>
  <style type="text/css">*{stroke-linecap:butt;stroke-linejoin:round;}</style>
 </defs>
 <g id="figure_1">
  <g id="patch_1">
   <path d="M 0 279.929062 
L 833.189062 279.929062 
L 833.189062 0 
L 0 0 
z
" style="fill:#ffffff;"/>
  </g>
  <g id="axes_1">
   <g id="patch_2">
    <path d="M 44.789063 253.44 
L 825.989063 253.44 
L 825.989063 27.36 
L 44.789063 27.36 
z
" style="fill:#ffffff;"/>
   </g>
   <g id="PolyCollection_1">
    <defs>
     <path d="M 44.789062 -210.608935 
L 44.789062 -149.184076 
L 46.959062 -147.662269 
L 49.129063 -141.063666 
L 51.299063 -124.045398 
L 53.469063 -86.114152 
L 55.639062 -100.862478 
L 57.809062 -146.768003 
L 59.979063 -141.107079 
L 62.149063 -155.675799 
L 64.319062 -147.003591 
L 66.489062 -135.533565 
L 68.659063 -146.20407 
L 70.829063 -122.317736 
L 72.999062 -120.936706 
L 75.169062 -117.178984 
L 77.339063 -140.655448 
L 79.509063 -145.985054 
L 81.679062 -146.674252 
L 83.849062 -143.52986 
L 86.019063 -145.381687 
L 88.189063 -147.192557 
L 90.359062 -52.498239 
L 92.529062 -148.562118 
L 94.699063 -145.579636 
L 96.869063 -146.825886 
L 99.039062 -140.718135 
L 101.209062 -144.402338 
L 103.379063 -148.838448 
L 105.549063 -108.572871 
L 107.719063 -102.611188 
L 109.889062 -149.352691 
L 112.059062 -148.346871 
L 114.229063 -150.987203 
L 116.399063 -129.315464 
L 118.569062 -152.725827 
L 120.739062 -126.977612 
L 122.909063 -149.546942 
L 125.079063 -152.053614 
L 127.249062 -146.720858 
L 129.419062 -149.4519 
L 131.589063 -142.81443 
L 133.759063 -146.572679 
L 135.929062 -145.516351 
L 138.099062 -150.84626 
L 140.269063 -137.12738 
L 142.439063 -148.969785 
L 144.609062 -118.00961 
L 146.779062 -134.791331 
L 148.949063 -147.006812 
L 151.119063 -108.901641 
L 153.289062 -146.057597 
L 155.459062 -150.982322 
L 157.629063 -136.072283 
L 159.799063 -151.092643 
L 161.969063 -149.736367 
L 164.139062 -81.038136 
L 166.309062 -135.107854 
L 168.479063 -146.391774 
L 170.649063 -148.824397 
L 172.819062 -145.223517 
L 174.989062 -146.779201 
L 177.159063 -116.326598 
L 179.329063 -138.253027 
L 181.499062 -152.762373 
L 183.669062 -145.732378 
L 185.839063 -149.307151 
L 188.009063 -105.621831 
L 190.179062 -151.568179 
L 192.349062 -145.835612 
L 194.519063 -148.762823 
L 196.689063 -149.060213 
L 198.859062 -138.963764 
L 201.029062 -147.060005 
L 203.199063 -106.791784 
L 205.369063 -140.056292 
L 207.539062 -96.742938 
L 209.709062 -149.945881 
L 211.879063 -148.788312 
L 214.049063 -148.495592 
L 216.219063 -148.349334 
L 218.389062 -148.246475 
L 220.559062 -151.161209 
L 222.729063 -144.543416 
L 224.899063 -148.401329 
L 227.069062 -147.736218 
L 229.239062 -150.235342 
L 231.409063 -147.64369 
L 233.579063 -149.096648 
L 235.749062 -152.243891 
L 237.919062 -148.244628 
L 240.089063 -145.76111 
L 242.259063 -113.200747 
L 244.429062 -98.059717 
L 246.599062 -149.197576 
L 248.769063 -114.401958 
L 250.939063 -148.544686 
L 253.109062 -124.270771 
L 255.279062 -119.000878 
L 257.449063 -152.47718 
L 259.619063 -52.517793 
L 261.789062 -150.286203 
L 263.959062 -148.48279 
L 266.129063 -144.254886 
L 268.299063 -148.648326 
L 270.469063 -146.670369 
L 272.639062 -151.385634 
L 274.809062 -147.912517 
L 276.979063 -149.20541 
L 279.149063 -148.428137 
L 281.319062 -139.565408 
L 283.489062 -152.902994 
L 285.659063 -65.435528 
L 287.829063 -151.845093 
L 289.999062 -74.435804 
L 292.169062 -147.209636 
L 294.339063 -148.825448 
L 296.509063 -151.387235 
L 298.679062 -103.478916 
L 300.849062 -146.881735 
L 303.019063 -142.170358 
L 305.189063 -104.417804 
L 307.359062 -145.003441 
L 309.529062 -151.052198 
L 311.699063 -147.348663 
L 313.869063 -115.72532 
L 316.039062 -59.340656 
L 318.209062 -114.896399 
L 320.379063 -113.586303 
L 322.549063 -123.744965 
L 324.719063 -151.240912 
L 326.889062 -133.959039 
L 329.059062 -139.675039 
L 331.229063 -152.565382 
L 333.399063 -145.191328 
L 335.569062 -148.516027 
L 337.739062 -150.850632 
L 339.909063 -146.911889 
L 342.079063 -136.868792 
L 344.249062 -148.091477 
L 346.419062 -144.024631 
L 348.589063 -111.738502 
L 350.759063 -150.463526 
L 352.929062 -150.280149 
L 355.099062 -137.681899 
L 357.269063 -152.644243 
L 359.439063 -147.296725 
L 361.609062 -146.229215 
L 363.779062 -86.991204 
L 365.949063 -147.014981 
L 368.119063 -149.937139 
L 370.289062 -145.34722 
L 372.459062 -147.768492 
L 374.629063 -147.781959 
L 376.799063 -105.412846 
L 378.969063 -151.76036 
L 381.139062 -130.718735 
L 383.309063 -147.81965 
L 385.479063 -123.447583 
L 387.649063 -152.494186 
L 389.819062 -115.549916 
L 391.989062 -147.568892 
L 394.159063 -151.504132 
L 396.329063 -130.037934 
L 398.499062 -144.132881 
L 400.669062 -127.177049 
L 402.839063 -133.054488 
L 405.009063 -143.703182 
L 407.179062 -149.297435 
L 409.349062 -148.264614 
L 411.519063 -146.17508 
L 413.689063 -150.908453 
L 415.859062 -149.980403 
L 418.029062 -144.362874 
L 420.199063 -121.295533 
L 422.369063 -149.161709 
L 424.539062 -150.671129 
L 426.709062 -145.055689 
L 428.879063 -133.52259 
L 431.049063 -126.709137 
L 433.219063 -136.775606 
L 435.389062 -142.189955 
L 437.559063 -151.85434 
L 439.729063 -146.240748 
L 441.899063 -139.489545 
L 444.069062 -147.575762 
L 446.239062 -150.881348 
L 448.409063 -148.348805 
L 450.579063 -129.927816 
L 452.749062 -152.419091 
L 454.919062 -93.4517 
L 457.089063 -146.002689 
L 459.259063 -118.469539 
L 461.429062 -150.501986 
L 463.599062 -146.566019 
L 465.769063 -150.878011 
L 467.939063 -147.589886 
L 470.109062 -146.862656 
L 472.279062 -86.675249 
L 474.449063 -133.088576 
L 476.619063 -123.422939 
L 478.789062 -145.051175 
L 480.959062 -150.36369 
L 483.129063 -132.771236 
L 485.299063 -151.05184 
L 487.469063 -121.987471 
L 489.639062 -149.074244 
L 491.809063 -132.770919 
L 493.979063 -148.916223 
L 496.149063 -129.527959 
L 498.319062 -102.257395 
L 500.489062 -134.499823 
L 502.659063 -153.070904 
L 504.829063 -149.367604 
L 506.999062 -134.800721 
L 509.169062 -149.002297 
L 511.339063 -147.597467 
L 513.509063 -145.929971 
L 515.679062 -145.702681 
L 517.849062 -149.614763 
L 520.019063 -144.584528 
L 522.189063 -147.817136 
L 524.359062 -145.44668 
L 526.529062 -98.245395 
L 528.699063 -146.663678 
L 530.869063 -107.620553 
L 533.039062 -147.55332 
L 535.209062 -136.076993 
L 537.379063 -151.883175 
L 539.549063 -125.578925 
L 541.719063 -132.032431 
L 543.889062 -150.501162 
L 546.059063 -106.837576 
L 548.229063 -139.855253 
L 550.399063 -137.578022 
L 552.569062 -138.671015 
L 554.739062 -119.971747 
L 556.909063 -82.059305 
L 559.079063 -112.040491 
L 561.249062 -70.966068 
L 563.419062 -141.042327 
L 565.589063 -130.672867 
L 567.759063 -147.9427 
L 569.929062 -137.208514 
L 572.099062 -149.808523 
L 574.269063 -146.153636 
L 576.439063 -147.353935 
L 578.609062 -154.819567 
L 580.779062 -142.402982 
L 582.949063 -108.218969 
L 585.119063 -149.554924 
L 587.289062 -141.966596 
L 589.459062 -145.157454 
L 591.629063 -154.976048 
L 593.799063 -146.512761 
L 595.969063 -149.686549 
L 598.139062 -146.945558 
L 600.309063 -153.157213 
L 602.479063 -144.129062 
L 604.649063 -150.218446 
L 606.819062 -143.850888 
L 608.989062 -152.702157 
L 611.159063 -149.012557 
L 613.329063 -151.516801 
L 615.499062 -148.828039 
L 617.669062 -146.295272 
L 619.839063 -146.293826 
L 622.009063 -146.069795 
L 624.179062 -138.598351 
L 626.349062 -140.626093 
L 628.519063 -147.796423 
L 630.689063 -150.982876 
L 632.859062 -148.817215 
L 635.029062 -147.303461 
L 637.199063 -101.344118 
L 639.369063 -140.480427 
L 641.539062 -144.491481 
L 643.709062 -144.937101 
L 645.879063 -145.238128 
L 648.049063 -143.608983 
L 650.219063 -146.970067 
L 652.389062 -156.714198 
L 654.559063 -57.299936 
L 656.729063 -149.329669 
L 658.899063 -151.140184 
L 661.069062 -110.091072 
L 663.239062 -148.428593 
L 665.409063 -146.511611 
L 667.579063 -150.826751 
L 669.749062 -147.072331 
L 671.919062 -146.260293 
L 674.089063 -150.339051 
L 676.259063 -143.346147 
L 678.429062 -152.489969 
L 680.599062 -148.329558 
L 682.769063 -121.02535 
L 684.939063 -137.90698 
L 687.109062 -149.988982 
L 689.279062 -150.53972 
L 691.449063 -148.673252 
L 693.619063 -142.852635 
L 695.789062 -148.0244 
L 697.959062 -147.252805 
L 700.129063 -148.469057 
L 702.299063 -142.682747 
L 704.469063 -151.624226 
L 706.639062 -144.729347 
L 708.809063 -149.912173 
L 710.979063 -147.12866 
L 713.149063 -84.422701 
L 715.319062 -144.0645 
L 717.489062 -150.108301 
L 719.659063 -148.182049 
L 721.829063 -145.743465 
L 723.999062 -140.88626 
L 726.169062 -147.167477 
L 728.339063 -146.447985 
L 730.509063 -148.46356 
L 732.679062 -135.720258 
L 734.849062 -139.947564 
L 737.019063 -147.76969 
L 739.189063 -149.298015 
L 741.359062 -149.955531 
L 743.529062 -142.192244 
L 745.699063 -139.462307 
L 747.869063 -152.917778 
L 750.039062 -146.316963 
L 752.209062 -148.576761 
L 754.379063 -145.232989 
L 756.549063 -144.332931 
L 758.719063 -143.642632 
L 760.889062 -148.394678 
L 763.059063 -153.963711 
L 765.229063 -141.197215 
L 767.399063 -151.309669 
L 769.569062 -145.634867 
L 771.739062 -142.897721 
L 773.909063 -146.824893 
L 776.079063 -149.677786 
L 778.249062 -149.178532 
L 780.419062 -141.666215 
L 782.589063 -155.468225 
L 784.759063 -148.441504 
L 786.929062 -148.803924 
L 789.099062 -146.910948 
L 791.269063 -147.356283 
L 793.439063 -144.630901 
L 795.609062 -146.546849 
L 797.779062 -145.66325 
L 799.949063 -136.352778 
L 802.119063 -151.110924 
L 804.289062 -138.981922 
L 806.459062 -147.186869 
L 808.629063 -147.834453 
L 810.799063 -144.715162 
L 812.969063 -150.203656 
L 815.139062 -154.273582 
L 817.309063 -145.825128 
L 819.479063 -140.154887 
L 821.649063 -115.701273 
L 823.819062 -145.840824 
L 825.989062 -182.339322 
L 825.989062 -241.861578 
L 825.989062 -241.861578 
L 823.819062 -206.801681 
L 821.649063 -176.696717 
L 819.479063 -200.781768 
L 817.309063 -207.050746 
L 815.139062 -215.218644 
L 812.969063 -211.105532 
L 810.799063 -206.084435 
L 808.629063 -209.148307 
L 806.459062 -208.267945 
L 804.289062 -199.752456 
L 802.119063 -212.258518 
L 799.949063 -197.288316 
L 797.779062 -207.2163 
L 795.609062 -208.128116 
L 793.439063 -206.221409 
L 791.269063 -208.94014 
L 789.099062 -207.909059 
L 786.929062 -209.940371 
L 784.759063 -209.492261 
L 782.589063 -216.355798 
L 780.419062 -202.816263 
L 778.249062 -210.304465 
L 776.079063 -210.488657 
L 773.909063 -207.892111 
L 771.739062 -203.600368 
L 769.569062 -206.69291 
L 767.399063 -212.143618 
L 765.229063 -202.578387 
L 763.059063 -215.032781 
L 760.889062 -209.2318 
L 758.719063 -204.409255 
L 756.549063 -205.121196 
L 754.379063 -206.340756 
L 752.209062 -209.876195 
L 750.039062 -207.122032 
L 747.869063 -213.927173 
L 745.699063 -201.307944 
L 743.529062 -203.99393 
L 741.359062 -211.151239 
L 739.189063 -210.530158 
L 737.019063 -208.891754 
L 734.849062 -201.747122 
L 732.679062 -197.634917 
L 730.509063 -209.843625 
L 728.339063 -208.048716 
L 726.169062 -208.72951 
L 723.999062 -201.612452 
L 721.829063 -206.784743 
L 719.659063 -209.191755 
L 717.489062 -210.943322 
L 715.319062 -204.984571 
L 713.149063 -146.061156 
L 710.979063 -208.161257 
L 708.809063 -210.715886 
L 706.639062 -206.117753 
L 704.469063 -212.581944 
L 702.299063 -203.484229 
L 700.129063 -209.376651 
L 697.959062 -208.339378 
L 695.789062 -209.068134 
L 693.619063 -203.734307 
L 691.449063 -209.733522 
L 689.279062 -211.692253 
L 687.109062 -211.342125 
L 684.939063 -199.768133 
L 682.769063 -183.598521 
L 680.599062 -209.858586 
L 678.429062 -213.546674 
L 676.259063 -204.70669 
L 674.089063 -211.733299 
L 671.919062 -207.402529 
L 669.749062 -208.321799 
L 667.579063 -211.875294 
L 665.409063 -208.034072 
L 663.239062 -209.881229 
L 661.069062 -171.370155 
L 658.899063 -212.124256 
L 656.729063 -210.14508 
L 654.559063 -121.614502 
L 652.389062 -217.806579 
L 650.219063 -208.212169 
L 648.049063 -205.309359 
L 645.879063 -206.884023 
L 643.709062 -206.175453 
L 641.539062 -206.116043 
L 639.369063 -200.924622 
L 637.199063 -162.990997 
L 635.029062 -208.858549 
L 632.859062 -210.07599 
L 630.689063 -212.013037 
L 628.519063 -209.058416 
L 626.349062 -202.46886 
L 624.179062 -200.386201 
L 622.009063 -207.412277 
L 619.839063 -206.842171 
L 617.669062 -207.70063 
L 615.499062 -210.095078 
L 613.329063 -212.818635 
L 611.159063 -210.434309 
L 608.989062 -213.941526 
L 606.819062 -205.22002 
L 604.649063 -211.399011 
L 602.479063 -205.258413 
L 600.309063 -214.205591 
L 598.139062 -208.1151 
L 595.969063 -211.078787 
L 593.799063 -207.380664 
L 591.629063 -216.111917 
L 589.459062 -206.755815 
L 587.289062 -203.773711 
L 585.119063 -210.982652 
L 582.949063 -171.06768 
L 580.779062 -204.068691 
L 578.609062 -215.715801 
L 576.439063 -208.334907 
L 574.269063 -207.773316 
L 572.099062 -210.914058 
L 569.929062 -199.12262 
L 567.759063 -209.223966 
L 565.589063 -192.770883 
L 563.419062 -202.874245 
L 561.249062 -134.893315 
L 559.079063 -174.88153 
L 556.909063 -145.696392 
L 554.739062 -182.522888 
L 552.569062 -200.522019 
L 550.399063 -199.591385 
L 548.229063 -201.68327 
L 546.059063 -169.819388 
L 543.889062 -211.566129 
L 541.719063 -194.107025 
L 539.549063 -187.969638 
L 537.379063 -212.805674 
L 535.209062 -198.175107 
L 533.039062 -209.021403 
L 530.869063 -170.593021 
L 528.699063 -208.261196 
L 526.529062 -161.494727 
L 524.359062 -207.103952 
L 522.189063 -209.141927 
L 520.019063 -205.632374 
L 517.849062 -210.491829 
L 515.679062 -206.621707 
L 513.509063 -207.461127 
L 511.339063 -208.938957 
L 509.169062 -210.440166 
L 506.999062 -196.835285 
L 504.829063 -210.554322 
L 502.659063 -214.164612 
L 500.489062 -196.558461 
L 498.319062 -165.378137 
L 496.149063 -191.765635 
L 493.979063 -210.36726 
L 491.809063 -194.867909 
L 489.639062 -210.108731 
L 487.469063 -184.544003 
L 485.299063 -212.36556 
L 483.129063 -194.825243 
L 480.959062 -211.551706 
L 478.789062 -206.699118 
L 476.619063 -185.902336 
L 474.449063 -195.105272 
L 472.279062 -150.25076 
L 470.109062 -208.45078 
L 467.939063 -208.959115 
L 465.769063 -211.932334 
L 463.599062 -207.419821 
L 461.429062 -211.624753 
L 459.259063 -181.009941 
L 457.089063 -207.074186 
L 454.919062 -156.933458 
L 452.749062 -213.51189 
L 450.579063 -192.155881 
L 448.409063 -209.832275 
L 446.239062 -212.214697 
L 444.069062 -208.846802 
L 441.899063 -201.354296 
L 439.729063 -207.627491 
L 437.559063 -213.164041 
L 435.389062 -203.922167 
L 433.219063 -198.797618 
L 431.049063 -188.987678 
L 428.879063 -195.528355 
L 426.709062 -206.167369 
L 424.539062 -211.735713 
L 422.369063 -210.566656 
L 420.199063 -183.728916 
L 418.029062 -205.747639 
L 415.859062 -211.392628 
L 413.689063 -212.07284 
L 411.519063 -207.773049 
L 409.349062 -209.78933 
L 407.179062 -210.740259 
L 405.009063 -205.341135 
L 402.839063 -195.138747 
L 400.669062 -189.487244 
L 398.499062 -205.487415 
L 396.329063 -191.842135 
L 394.159063 -212.48735 
L 391.989062 -208.575117 
L 389.819062 -178.240665 
L 387.649063 -213.548323 
L 385.479063 -185.902088 
L 383.309063 -209.041852 
L 381.139062 -192.871329 
L 378.969063 -212.839856 
L 376.799063 -168.456694 
L 374.629063 -208.899585 
L 372.459062 -208.620436 
L 370.289062 -206.495692 
L 368.119063 -211.187617 
L 365.949063 -208.205144 
L 363.779062 -150.504015 
L 361.609062 -207.834511 
L 359.439063 -208.453503 
L 357.269063 -213.734803 
L 355.099062 -199.614174 
L 352.929062 -211.620613 
L 350.759063 -211.655408 
L 348.589063 -174.559053 
L 346.419062 -205.698483 
L 344.249062 -209.59572 
L 342.079063 -198.837006 
L 339.909063 -207.814761 
L 337.739062 -211.894015 
L 335.569062 -209.917208 
L 333.399063 -206.816506 
L 331.229063 -213.854798 
L 329.059062 -201.554097 
L 326.889062 -196.066141 
L 324.719063 -212.260409 
L 322.549063 -186.082495 
L 320.379063 -176.365434 
L 318.209062 -177.606079 
L 316.039062 -123.53468 
L 313.869063 -178.339872 
L 311.699063 -208.891766 
L 309.529062 -212.330781 
L 307.359062 -205.829255 
L 305.189063 -167.514828 
L 303.019063 -203.898372 
L 300.849062 -207.940422 
L 298.679062 -166.573579 
L 296.509063 -212.683178 
L 294.339063 -210.289176 
L 292.169062 -208.407732 
L 289.999062 -138.350294 
L 287.829063 -213.079363 
L 285.659063 -129.520224 
L 283.489062 -214.039128 
L 281.319062 -200.36299 
L 279.149063 -209.532991 
L 276.979063 -210.33966 
L 274.809062 -209.159786 
L 272.639062 -212.741583 
L 270.469063 -208.205176 
L 268.299063 -210.117233 
L 266.129063 -205.929194 
L 263.959062 -209.674187 
L 261.789062 -211.492457 
L 259.619063 -117.078588 
L 257.449063 -213.44863 
L 255.279062 -180.049913 
L 253.109062 -186.671783 
L 250.939063 -210.020938 
L 248.769063 -175.457 
L 246.599062 -210.331826 
L 244.429062 -161.354734 
L 242.259063 -175.885196 
L 240.089063 -207.346771 
L 237.919062 -209.381465 
L 235.749062 -213.517743 
L 233.579063 -210.481866 
L 231.409063 -208.957935 
L 229.239062 -211.247561 
L 227.069062 -209.262821 
L 224.899063 -209.714319 
L 222.729063 -205.51306 
L 220.559062 -212.175507 
L 218.389062 -209.544412 
L 216.219063 -209.640469 
L 214.049063 -209.575024 
L 211.879063 -209.95879 
L 209.709062 -211.159073 
L 207.539062 -158.156243 
L 205.369063 -201.843637 
L 203.199063 -169.825663 
L 201.029062 -208.561857 
L 198.859062 -200.810902 
L 196.689063 -210.506198 
L 194.519063 -209.983317 
L 192.349062 -206.876782 
L 190.179062 -212.926209 
L 188.009063 -167.029145 
L 185.839063 -210.282074 
L 183.669062 -206.702494 
L 181.499062 -213.833395 
L 179.329063 -200.157996 
L 177.159063 -177.357654 
L 174.989062 -207.729016 
L 172.819062 -206.487358 
L 170.649063 -209.624891 
L 168.479063 -207.212627 
L 166.309062 -197.136927 
L 164.139062 -142.846762 
L 161.969063 -210.943897 
L 159.799063 -212.385238 
L 157.629063 -198.05397 
L 155.459062 -212.084672 
L 153.289062 -207.251569 
L 151.119063 -171.796095 
L 148.949063 -208.423925 
L 146.779062 -195.502567 
L 144.609062 -180.579732 
L 142.439063 -210.394749 
L 140.269063 -199.0699 
L 138.099062 -212.016312 
L 135.929062 -206.509565 
L 133.759063 -207.85927 
L 131.589063 -203.524907 
L 129.419062 -210.8891 
L 127.249062 -207.749148 
L 125.079063 -213.281051 
L 122.909063 -210.897537 
L 120.739062 -189.326102 
L 118.569062 -213.793562 
L 116.399063 -191.535346 
L 114.229063 -211.845775 
L 112.059062 -209.815976 
L 109.889062 -210.571956 
L 107.719063 -165.714301 
L 105.549063 -171.494873 
L 103.379063 -210.282922 
L 101.209062 -206.075515 
L 99.039062 -202.532545 
L 96.869063 -208.000847 
L 94.699063 -206.312342 
L 92.529062 -209.725449 
L 90.359062 -116.943848 
L 88.189063 -208.744436 
L 86.019063 -206.751189 
L 83.849062 -205.203008 
L 81.679062 -208.036404 
L 79.509063 -207.602681 
L 77.339063 -202.511217 
L 75.169062 -179.753513 
L 72.999062 -183.40254 
L 70.829063 -184.823973 
L 68.659063 -207.802745 
L 66.489062 -197.540944 
L 64.319062 -208.573609 
L 62.149063 -216.640326 
L 59.979063 -202.483118 
L 57.809062 -208.336674 
L 55.639062 -164.083939 
L 53.469063 -149.662812 
L 51.299063 -186.376426 
L 49.129063 -202.894037 
L 46.959062 -209.196992 
L 44.789062 -210.608935 
z
" id="m7c1edd210a" style="stroke:#ff0000;stroke-opacity:0.25;"/>
    </defs>
    <g clip-path="url(#p6936f367e0)">
     <use style="fill:#ff0000;fill-opacity:0.25;stroke:#ff0000;stroke-opacity:0.25;" x="0" xlink:href="#m7c1edd210a" y="279.929062"/>
    </g>
   </g>
   <g id="matplotlib.axis_1">
    <g id="xtick_1">
     <g id="line2d_1">
      <defs>
       <path d="M 0 0 
L 0 3.5 
" id="m9cd26507af" style="stroke:#555555;stroke-width:0.8;"/>
      </defs>
      <g>
       <use style="fill:#555555;stroke:#555555;stroke-width:0.8;" x="72.999062" xlink:href="#m9cd26507af" y="253.44"/>
      </g>
     </g>
     <g id="text_1">
      <!-- Nov -->
      <g style="fill:#555555;" transform="translate(61.440234 269.765469)scale(0.13 -0.13)">
       <defs>
        <path d="M 7.625 71.734375 
L 19.09375 71.734375 
L 55.328125 13.625 
L 55.328125 71.734375 
L 64.546875 71.734375 
L 64.546875 0 
L 53.65625 0 
L 16.890625 58.0625 
L 16.890625 0 
L 7.625 0 
z
M 35.453125 71.734375 
z
" id="Helvetica-78"/>
        <path d="M 27.203125 5.671875 
Q 35.9375 5.671875 39.1875 12.28125 
Q 42.4375 18.890625 42.4375 27 
Q 42.4375 34.328125 40.09375 38.921875 
Q 36.375 46.140625 27.296875 46.140625 
Q 19.234375 46.140625 15.578125 39.984375 
Q 11.921875 33.84375 11.921875 25.140625 
Q 11.921875 16.796875 15.578125 11.234375 
Q 19.234375 5.671875 27.203125 5.671875 
z
M 27.546875 53.8125 
Q 37.640625 53.8125 44.625 47.0625 
Q 51.609375 40.328125 51.609375 27.25 
Q 51.609375 14.59375 45.453125 6.34375 
Q 39.3125 -1.90625 26.375 -1.90625 
Q 15.578125 -1.90625 9.21875 5.390625 
Q 2.875 12.703125 2.875 25 
Q 2.875 38.1875 9.5625 46 
Q 16.265625 53.8125 27.546875 53.8125 
z
M 27.25 53.5625 
z
" id="Helvetica-111"/>
        <path d="M 10.75 52.296875 
L 24.703125 9.71875 
L 39.3125 52.296875 
L 48.921875 52.296875 
L 29.203125 0 
L 19.828125 0 
L 0.53125 52.296875 
z
" id="Helvetica-118"/>
       </defs>
       <use xlink:href="#Helvetica-78"/>
       <use x="72.216797" xlink:href="#Helvetica-111"/>
       <use x="127.832031" xlink:href="#Helvetica-118"/>
      </g>
     </g>
    </g>
    <g id="xtick_2">
     <g id="line2d_2">
      <g>
       <use style="fill:#555555;stroke:#555555;stroke-width:0.8;" x="138.099062" xlink:href="#m9cd26507af" y="253.44"/>
      </g>
     </g>
     <g id="text_2">
      <!-- Dec -->
      <g style="fill:#555555;" transform="translate(126.540234 269.765469)scale(0.13 -0.13)">
       <defs>
        <path d="M 35.15625 8.296875 
Q 40.09375 8.296875 43.265625 9.328125 
Q 48.921875 11.234375 52.546875 16.65625 
Q 55.421875 21 56.6875 27.78125 
Q 57.421875 31.84375 57.421875 35.296875 
Q 57.421875 48.640625 52.125 56 
Q 46.828125 63.375 35.0625 63.375 
L 17.828125 63.375 
L 17.828125 8.296875 
z
M 8.0625 71.734375 
L 37.109375 71.734375 
Q 51.90625 71.734375 60.0625 61.234375 
Q 67.328125 51.765625 67.328125 36.96875 
Q 67.328125 25.53125 63.03125 16.3125 
Q 55.46875 0 37.015625 0 
L 8.0625 0 
z
" id="Helvetica-68"/>
        <path d="M 28.21875 53.46875 
Q 33.796875 53.46875 39.015625 50.859375 
Q 44.234375 48.25 46.96875 44.09375 
Q 49.609375 40.140625 50.484375 34.859375 
Q 51.265625 31.25 51.265625 23.34375 
L 12.9375 23.34375 
Q 13.1875 15.375 16.703125 10.5625 
Q 20.21875 5.765625 27.59375 5.765625 
Q 34.46875 5.765625 38.578125 10.296875 
Q 40.921875 12.9375 41.890625 16.40625 
L 50.53125 16.40625 
Q 50.203125 13.53125 48.265625 9.984375 
Q 46.34375 6.453125 43.953125 4.203125 
Q 39.9375 0.296875 34.03125 -1.078125 
Q 30.859375 -1.859375 26.859375 -1.859375 
Q 17.09375 -1.859375 10.296875 5.25 
Q 3.515625 12.359375 3.515625 25.140625 
Q 3.515625 37.75 10.34375 45.609375 
Q 17.1875 53.46875 28.21875 53.46875 
z
M 42.234375 30.328125 
Q 41.703125 36.03125 39.75 39.453125 
Q 36.140625 45.796875 27.6875 45.796875 
Q 21.625 45.796875 17.515625 41.421875 
Q 13.421875 37.0625 13.1875 30.328125 
z
M 27.390625 53.5625 
z
" id="Helvetica-101"/>
        <path d="M 26.609375 53.8125 
Q 35.453125 53.8125 40.984375 49.515625 
Q 46.53125 45.21875 47.65625 34.71875 
L 39.109375 34.71875 
Q 38.328125 39.546875 35.546875 42.75 
Q 32.765625 45.953125 26.609375 45.953125 
Q 18.21875 45.953125 14.59375 37.75 
Q 12.25 32.421875 12.25 24.609375 
Q 12.25 16.75 15.5625 11.375 
Q 18.890625 6 26.03125 6 
Q 31.5 6 34.6875 9.34375 
Q 37.890625 12.703125 39.109375 18.5 
L 47.65625 18.5 
Q 46.1875 8.109375 40.328125 3.296875 
Q 34.46875 -1.515625 25.34375 -1.515625 
Q 15.09375 -1.515625 8.984375 5.984375 
Q 2.875 13.484375 2.875 24.703125 
Q 2.875 38.484375 9.5625 46.140625 
Q 16.265625 53.8125 26.609375 53.8125 
z
M 25.25 53.5625 
z
" id="Helvetica-99"/>
       </defs>
       <use xlink:href="#Helvetica-68"/>
       <use x="72.216797" xlink:href="#Helvetica-101"/>
       <use x="127.832031" xlink:href="#Helvetica-99"/>
      </g>
     </g>
    </g>
    <g id="xtick_3">
     <g id="line2d_3">
      <g>
       <use style="fill:#555555;stroke:#555555;stroke-width:0.8;" x="205.369063" xlink:href="#m9cd26507af" y="253.44"/>
      </g>
     </g>
     <g id="text_3">
      <!-- Jan -->
      <g style="fill:#555555;" transform="translate(194.889844 269.765469)scale(0.13 -0.13)">
       <defs>
        <path d="M 42.828125 21.390625 
Q 42.828125 12.3125 40.140625 7.28125 
Q 35.15625 -1.90625 21.1875 -1.90625 
Q 13.140625 -1.90625 7.421875 2.46875 
Q 1.703125 6.84375 1.703125 18.015625 
L 1.703125 23.140625 
L 10.84375 23.140625 
L 10.84375 18.015625 
Q 10.84375 12.15625 13.453125 9.203125 
Q 16.0625 6.25 21.578125 6.25 
Q 29.34375 6.25 31.734375 11.578125 
Q 33.203125 14.84375 33.203125 23.921875 
L 33.203125 71.734375 
L 42.828125 71.734375 
z
" id="Helvetica-74"/>
        <path d="M 13.1875 13.921875 
Q 13.1875 10.109375 15.96875 7.90625 
Q 18.75 5.71875 22.5625 5.71875 
Q 27.203125 5.71875 31.546875 7.859375 
Q 38.875 11.421875 38.875 19.53125 
L 38.875 26.609375 
Q 37.25 25.59375 34.703125 24.90625 
Q 32.171875 24.21875 29.734375 23.921875 
L 24.421875 23.25 
Q 19.625 22.609375 17.234375 21.234375 
Q 13.1875 18.953125 13.1875 13.921875 
z
M 34.46875 31.6875 
Q 37.5 32.078125 38.53125 34.234375 
Q 39.109375 35.40625 39.109375 37.59375 
Q 39.109375 42.09375 35.90625 44.109375 
Q 32.71875 46.140625 26.765625 46.140625 
Q 19.875 46.140625 17 42.4375 
Q 15.375 40.375 14.890625 36.328125 
L 6.6875 36.328125 
Q 6.9375 46 12.96875 49.78125 
Q 19 53.5625 26.953125 53.5625 
Q 36.1875 53.5625 41.9375 50.046875 
Q 47.65625 46.53125 47.65625 39.109375 
L 47.65625 8.984375 
Q 47.65625 7.625 48.21875 6.78125 
Q 48.78125 5.953125 50.59375 5.953125 
Q 51.171875 5.953125 51.90625 6.03125 
Q 52.640625 6.109375 53.46875 6.25 
L 53.46875 -0.25 
Q 51.421875 -0.828125 50.34375 -0.96875 
Q 49.265625 -1.125 47.40625 -1.125 
Q 42.875 -1.125 40.828125 2.09375 
Q 39.75 3.8125 39.3125 6.9375 
Q 36.625 3.421875 31.59375 0.828125 
Q 26.5625 -1.765625 20.515625 -1.765625 
Q 13.234375 -1.765625 8.609375 2.65625 
Q 4 7.078125 4 13.71875 
Q 4 21 8.546875 25 
Q 13.09375 29 20.453125 29.9375 
z
M 27.203125 53.5625 
z
" id="Helvetica-97"/>
        <path d="M 6.453125 52.296875 
L 14.796875 52.296875 
L 14.796875 44.875 
Q 18.5 49.46875 22.65625 51.46875 
Q 26.8125 53.46875 31.890625 53.46875 
Q 43.015625 53.46875 46.921875 45.703125 
Q 49.078125 41.453125 49.078125 33.546875 
L 49.078125 0 
L 40.140625 0 
L 40.140625 32.953125 
Q 40.140625 37.75 38.71875 40.671875 
Q 36.375 45.5625 30.21875 45.5625 
Q 27.09375 45.5625 25.09375 44.921875 
Q 21.484375 43.84375 18.75 40.625 
Q 16.546875 38.03125 15.890625 35.265625 
Q 15.234375 32.515625 15.234375 27.390625 
L 15.234375 0 
L 6.453125 0 
z
M 27.09375 53.5625 
z
" id="Helvetica-110"/>
       </defs>
       <use xlink:href="#Helvetica-74"/>
       <use x="50" xlink:href="#Helvetica-97"/>
       <use x="105.615234" xlink:href="#Helvetica-110"/>
      </g>
     </g>
    </g>
    <g id="xtick_4">
     <g id="line2d_4">
      <g>
       <use style="fill:#555555;stroke:#555555;stroke-width:0.8;" x="272.639062" xlink:href="#m9cd26507af" y="253.44"/>
      </g>
     </g>
     <g id="text_4">
      <!-- Feb -->
      <g style="fill:#555555;" transform="translate(261.439766 269.765469)scale(0.13 -0.13)">
       <defs>
        <path d="M 8.546875 71.734375 
L 58.296875 71.734375 
L 58.296875 62.9375 
L 18.265625 62.9375 
L 18.265625 41.15625 
L 53.46875 41.15625 
L 53.46875 32.625 
L 18.265625 32.625 
L 18.265625 0 
L 8.546875 0 
z
" id="Helvetica-70"/>
        <path d="M 5.765625 71.96875 
L 14.3125 71.96875 
L 14.3125 45.953125 
Q 17.1875 49.703125 21.1875 51.671875 
Q 25.203125 53.65625 29.890625 53.65625 
Q 39.65625 53.65625 45.734375 46.9375 
Q 51.8125 40.234375 51.8125 27.15625 
Q 51.8125 14.75 45.796875 6.546875 
Q 39.796875 -1.65625 29.15625 -1.65625 
Q 23.1875 -1.65625 19.09375 1.21875 
Q 16.65625 2.9375 13.875 6.6875 
L 13.875 0 
L 5.765625 0 
z
M 28.609375 6.109375 
Q 35.75 6.109375 39.28125 11.765625 
Q 42.828125 17.4375 42.828125 26.703125 
Q 42.828125 34.96875 39.28125 40.375 
Q 35.75 45.796875 28.859375 45.796875 
Q 22.859375 45.796875 18.328125 41.359375 
Q 13.8125 36.921875 13.8125 26.703125 
Q 13.8125 19.34375 15.671875 14.75 
Q 19.140625 6.109375 28.609375 6.109375 
z
" id="Helvetica-98"/>
       </defs>
       <use xlink:href="#Helvetica-70"/>
       <use x="61.083984" xlink:href="#Helvetica-101"/>
       <use x="116.699219" xlink:href="#Helvetica-98"/>
      </g>
     </g>
    </g>
    <g id="xtick_5">
     <g id="line2d_5">
      <g>
       <use style="fill:#555555;stroke:#555555;stroke-width:0.8;" x="335.569062" xlink:href="#m9cd26507af" y="253.44"/>
      </g>
     </g>
     <g id="text_5">
      <!-- Mar -->
      <g style="fill:#555555;" transform="translate(324.375859 269.765469)scale(0.13 -0.13)">
       <defs>
        <path d="M 7.375 71.734375 
L 21.296875 71.734375 
L 41.890625 11.078125 
L 62.359375 71.734375 
L 76.125 71.734375 
L 76.125 0 
L 66.890625 0 
L 66.890625 42.328125 
Q 66.890625 44.53125 66.984375 49.609375 
Q 67.09375 54.6875 67.09375 60.5 
L 46.625 0 
L 37.015625 0 
L 16.40625 60.5 
L 16.40625 58.296875 
Q 16.40625 55.671875 16.53125 50.265625 
Q 16.65625 44.875 16.65625 42.328125 
L 16.65625 0 
L 7.375 0 
z
" id="Helvetica-77"/>
        <path d="M 6.6875 52.296875 
L 15.046875 52.296875 
L 15.046875 43.265625 
Q 16.0625 45.90625 20.0625 49.6875 
Q 24.078125 53.46875 29.296875 53.46875 
Q 29.546875 53.46875 30.125 53.421875 
Q 30.71875 53.375 32.125 53.21875 
L 32.125 43.953125 
Q 31.34375 44.09375 30.6875 44.140625 
Q 30.03125 44.1875 29.25 44.1875 
Q 22.609375 44.1875 19.046875 39.90625 
Q 15.484375 35.640625 15.484375 30.078125 
L 15.484375 0 
L 6.6875 0 
z
" id="Helvetica-114"/>
       </defs>
       <use xlink:href="#Helvetica-77"/>
       <use x="83.300781" xlink:href="#Helvetica-97"/>
       <use x="138.916016" xlink:href="#Helvetica-114"/>
      </g>
     </g>
    </g>
    <g id="xtick_6">
     <g id="line2d_6">
      <g>
       <use style="fill:#555555;stroke:#555555;stroke-width:0.8;" x="402.839063" xlink:href="#m9cd26507af" y="253.44"/>
      </g>
     </g>
     <g id="text_6">
      <!-- Apr -->
      <g style="fill:#555555;" transform="translate(392.724453 269.765469)scale(0.13 -0.13)">
       <defs>
        <path d="M 44.4375 29.390625 
L 33.546875 61.078125 
L 21.96875 29.390625 
z
M 28.46875 71.734375 
L 39.453125 71.734375 
L 65.484375 0 
L 54.828125 0 
L 47.5625 21.484375 
L 19.1875 21.484375 
L 11.421875 0 
L 1.46875 0 
z
" id="Helvetica-65"/>
        <path d="M 28.515625 5.90625 
Q 34.671875 5.90625 38.75 11.0625 
Q 42.828125 16.21875 42.828125 26.46875 
Q 42.828125 32.71875 41.015625 37.203125 
Q 37.59375 45.84375 28.515625 45.84375 
Q 19.390625 45.84375 16.015625 36.71875 
Q 14.203125 31.84375 14.203125 24.3125 
Q 14.203125 18.265625 16.015625 14.015625 
Q 19.4375 5.90625 28.515625 5.90625 
z
M 5.765625 52.046875 
L 14.3125 52.046875 
L 14.3125 45.125 
Q 16.9375 48.6875 20.0625 50.640625 
Q 24.515625 53.5625 30.515625 53.5625 
Q 39.40625 53.5625 45.609375 46.75 
Q 51.8125 39.9375 51.8125 27.296875 
Q 51.8125 10.203125 42.875 2.875 
Q 37.203125 -1.765625 29.6875 -1.765625 
Q 23.78125 -1.765625 19.78125 0.828125 
Q 17.4375 2.296875 14.546875 5.859375 
L 14.546875 -20.84375 
L 5.765625 -20.84375 
z
" id="Helvetica-112"/>
       </defs>
       <use xlink:href="#Helvetica-65"/>
       <use x="66.699219" xlink:href="#Helvetica-112"/>
       <use x="122.314453" xlink:href="#Helvetica-114"/>
      </g>
     </g>
    </g>
    <g id="xtick_7">
     <g id="line2d_7">
      <g>
       <use style="fill:#555555;stroke:#555555;stroke-width:0.8;" x="467.939063" xlink:href="#m9cd26507af" y="253.44"/>
      </g>
     </g>
     <g id="text_7">
      <!-- May -->
      <g style="fill:#555555;" transform="translate(455.660156 269.765469)scale(0.13 -0.13)">
       <defs>
        <path d="M 39.109375 52.296875 
L 48.828125 52.296875 
Q 46.96875 47.265625 40.578125 29.34375 
Q 35.796875 15.875 32.5625 7.375 
Q 24.953125 -12.640625 21.828125 -17.03125 
Q 18.703125 -21.4375 11.078125 -21.4375 
Q 9.234375 -21.4375 8.234375 -21.28125 
Q 7.234375 -21.140625 5.765625 -20.75 
L 5.765625 -12.75 
Q 8.0625 -13.375 9.078125 -13.515625 
Q 10.109375 -13.671875 10.890625 -13.671875 
Q 13.328125 -13.671875 14.46875 -12.859375 
Q 15.625 -12.0625 16.40625 -10.890625 
Q 16.65625 -10.5 18.15625 -6.875 
Q 19.671875 -3.265625 20.359375 -1.515625 
L 1.03125 52.296875 
L 10.984375 52.296875 
L 25 9.71875 
z
M 24.953125 53.5625 
z
" id="Helvetica-121"/>
       </defs>
       <use xlink:href="#Helvetica-77"/>
       <use x="83.300781" xlink:href="#Helvetica-97"/>
       <use x="138.916016" xlink:href="#Helvetica-121"/>
      </g>
     </g>
    </g>
    <g id="xtick_8">
     <g id="line2d_8">
      <g>
       <use style="fill:#555555;stroke:#555555;stroke-width:0.8;" x="535.209062" xlink:href="#m9cd26507af" y="253.44"/>
      </g>
     </g>
     <g id="text_8">
      <!-- Jun -->
      <g style="fill:#555555;" transform="translate(524.729844 269.765469)scale(0.13 -0.13)">
       <defs>
        <path d="M 15.234375 52.296875 
L 15.234375 17.578125 
Q 15.234375 13.578125 16.5 11.03125 
Q 18.84375 6.34375 25.25 6.34375 
Q 34.421875 6.34375 37.75 14.546875 
Q 39.546875 18.953125 39.546875 26.609375 
L 39.546875 52.296875 
L 48.34375 52.296875 
L 48.34375 0 
L 40.046875 0 
L 40.140625 7.71875 
Q 38.421875 4.734375 35.890625 2.6875 
Q 30.859375 -1.421875 23.6875 -1.421875 
Q 12.5 -1.421875 8.453125 6.0625 
Q 6.25 10.0625 6.25 16.75 
L 6.25 52.296875 
z
M 27.296875 53.5625 
z
" id="Helvetica-117"/>
       </defs>
       <use xlink:href="#Helvetica-74"/>
       <use x="50" xlink:href="#Helvetica-117"/>
       <use x="105.615234" xlink:href="#Helvetica-110"/>
      </g>
     </g>
    </g>
    <g id="xtick_9">
     <g id="line2d_9">
      <g>
       <use style="fill:#555555;stroke:#555555;stroke-width:0.8;" x="600.309063" xlink:href="#m9cd26507af" y="253.44"/>
      </g>
     </g>
     <g id="text_9">
      <!-- Jul -->
      <g style="fill:#555555;" transform="translate(592.000234 269.765469)scale(0.13 -0.13)">
       <defs>
        <path d="M 6.6875 71.734375 
L 15.484375 71.734375 
L 15.484375 0 
L 6.6875 0 
z
" id="Helvetica-108"/>
       </defs>
       <use xlink:href="#Helvetica-74"/>
       <use x="50" xlink:href="#Helvetica-117"/>
       <use x="105.615234" xlink:href="#Helvetica-108"/>
      </g>
     </g>
    </g>
    <g id="xtick_10">
     <g id="line2d_10">
      <g>
       <use style="fill:#555555;stroke:#555555;stroke-width:0.8;" x="667.579063" xlink:href="#m9cd26507af" y="253.44"/>
      </g>
     </g>
     <g id="text_10">
      <!-- Aug -->
      <g style="fill:#555555;" transform="translate(656.014141 269.765469)scale(0.13 -0.13)">
       <defs>
        <path d="M 24.90625 53.21875 
Q 31.0625 53.21875 35.640625 50.203125 
Q 38.140625 48.484375 40.71875 45.21875 
L 40.71875 51.8125 
L 48.828125 51.8125 
L 48.828125 4.25 
Q 48.828125 -5.71875 45.90625 -11.46875 
Q 40.4375 -22.125 25.25 -22.125 
Q 16.796875 -22.125 11.03125 -18.328125 
Q 5.28125 -14.546875 4.59375 -6.5 
L 13.53125 -6.5 
Q 14.15625 -10.015625 16.0625 -11.921875 
Q 19.046875 -14.84375 25.4375 -14.84375 
Q 35.546875 -14.84375 38.671875 -7.71875 
Q 40.53125 -3.515625 40.375 7.28125 
Q 37.75 3.265625 34.03125 1.3125 
Q 30.328125 -0.640625 24.21875 -0.640625 
Q 15.71875 -0.640625 9.34375 5.390625 
Q 2.984375 11.421875 2.984375 25.34375 
Q 2.984375 38.484375 9.40625 45.84375 
Q 15.828125 53.21875 24.90625 53.21875 
z
M 40.71875 26.375 
Q 40.71875 36.078125 36.71875 40.765625 
Q 32.71875 45.453125 26.515625 45.453125 
Q 17.234375 45.453125 13.8125 36.765625 
Q 12.015625 32.125 12.015625 24.609375 
Q 12.015625 15.765625 15.59375 11.15625 
Q 19.1875 6.546875 25.25 6.546875 
Q 34.71875 6.546875 38.578125 15.09375 
Q 40.71875 19.921875 40.71875 26.375 
z
M 25.921875 53.5625 
z
" id="Helvetica-103"/>
       </defs>
       <use xlink:href="#Helvetica-65"/>
       <use x="66.699219" xlink:href="#Helvetica-117"/>
       <use x="122.314453" xlink:href="#Helvetica-103"/>
      </g>
     </g>
    </g>
    <g id="xtick_11">
     <g id="line2d_11">
      <g>
       <use style="fill:#555555;stroke:#555555;stroke-width:0.8;" x="734.849062" xlink:href="#m9cd26507af" y="253.44"/>
      </g>
     </g>
     <g id="text_11">
      <!-- Sep -->
      <g style="fill:#555555;" transform="translate(723.284141 270.019375)scale(0.13 -0.13)">
       <defs>
        <path d="M 13.96875 23.140625 
Q 14.3125 17.046875 16.84375 13.234375 
Q 21.6875 6.109375 33.890625 6.109375 
Q 39.359375 6.109375 43.84375 7.671875 
Q 52.546875 10.6875 52.546875 18.5 
Q 52.546875 24.359375 48.875 26.859375 
Q 45.171875 29.296875 37.25 31.109375 
L 27.546875 33.296875 
Q 18.015625 35.453125 14.0625 38.03125 
Q 7.234375 42.53125 7.234375 51.46875 
Q 7.234375 61.140625 13.921875 67.328125 
Q 20.609375 73.53125 32.859375 73.53125 
Q 44.140625 73.53125 52.015625 68.078125 
Q 59.90625 62.640625 59.90625 50.6875 
L 50.78125 50.6875 
Q 50.046875 56.453125 47.65625 59.515625 
Q 43.21875 65.140625 32.5625 65.140625 
Q 23.96875 65.140625 20.203125 61.515625 
Q 16.453125 57.90625 16.453125 53.125 
Q 16.453125 47.859375 20.84375 45.40625 
Q 23.734375 43.84375 33.890625 41.5 
L 43.953125 39.203125 
Q 51.21875 37.546875 55.171875 34.671875 
Q 62.015625 29.640625 62.015625 20.0625 
Q 62.015625 8.15625 53.34375 3.03125 
Q 44.671875 -2.09375 33.203125 -2.09375 
Q 19.828125 -2.09375 12.25 4.734375 
Q 4.6875 11.53125 4.828125 23.140625 
z
M 33.59375 73.6875 
z
" id="Helvetica-83"/>
       </defs>
       <use xlink:href="#Helvetica-83"/>
       <use x="66.699219" xlink:href="#Helvetica-101"/>
       <use x="122.314453" xlink:href="#Helvetica-112"/>
      </g>
     </g>
    </g>
    <g id="xtick_12">
     <g id="line2d_12">
      <g>
       <use style="fill:#555555;stroke:#555555;stroke-width:0.8;" x="799.949063" xlink:href="#m9cd26507af" y="253.44"/>
      </g>
     </g>
     <g id="text_12">
      <!-- Oct -->
      <g style="fill:#555555;" transform="translate(789.8375 269.765469)scale(0.13 -0.13)">
       <defs>
        <path d="M 38.578125 73.6875 
Q 57.5625 73.6875 66.703125 61.46875 
Q 73.828125 51.953125 73.828125 37.109375 
Q 73.828125 21.046875 65.671875 10.40625 
Q 56.109375 -2.09375 38.375 -2.09375 
Q 21.828125 -2.09375 12.359375 8.84375 
Q 3.90625 19.390625 3.90625 35.5 
Q 3.90625 50.046875 11.140625 60.40625 
Q 20.40625 73.6875 38.578125 73.6875 
z
M 39.546875 6.59375 
Q 52.390625 6.59375 58.125 15.796875 
Q 63.875 25 63.875 36.96875 
Q 63.875 49.609375 57.25 57.328125 
Q 50.640625 65.046875 39.15625 65.046875 
Q 28.03125 65.046875 21 57.390625 
Q 13.96875 49.75 13.96875 34.859375 
Q 13.96875 22.953125 20 14.765625 
Q 26.03125 6.59375 39.546875 6.59375 
z
M 38.875 73.6875 
z
" id="Helvetica-79"/>
        <path d="M 8.203125 66.890625 
L 17.09375 66.890625 
L 17.09375 52.296875 
L 25.4375 52.296875 
L 25.4375 45.125 
L 17.09375 45.125 
L 17.09375 10.984375 
Q 17.09375 8.25 18.953125 7.328125 
Q 19.96875 6.78125 22.359375 6.78125 
Q 23 6.78125 23.734375 6.8125 
Q 24.46875 6.84375 25.4375 6.9375 
L 25.4375 0 
Q 23.921875 -0.4375 22.28125 -0.625 
Q 20.65625 -0.828125 18.75 -0.828125 
Q 12.59375 -0.828125 10.390625 2.3125 
Q 8.203125 5.46875 8.203125 10.5 
L 8.203125 45.125 
L 1.125 45.125 
L 1.125 52.296875 
L 8.203125 52.296875 
z
" id="Helvetica-116"/>
       </defs>
       <use xlink:href="#Helvetica-79"/>
       <use x="77.783203" xlink:href="#Helvetica-99"/>
       <use x="127.783203" xlink:href="#Helvetica-116"/>
      </g>
     </g>
    </g>
   </g>
   <g id="matplotlib.axis_2">
    <g id="ytick_1">
     <g id="line2d_13">
      <defs>
       <path d="M 0 0 
L -3.5 0 
" id="m21e4de5db7" style="stroke:#555555;stroke-width:0.8;"/>
      </defs>
      <g>
       <use style="fill:#555555;stroke:#555555;stroke-width:0.8;" x="44.789063" xlink:href="#m21e4de5db7" y="253.44"/>
      </g>
     </g>
     <g id="text_13">
      <!-- 68 -->
      <g style="fill:#555555;" transform="translate(23.330625 258.102734)scale(0.13 -0.13)">
       <defs>
        <path d="M 29.25 70.21875 
Q 40.96875 70.21875 45.578125 64.140625 
Q 50.203125 58.0625 50.203125 51.609375 
L 41.5 51.609375 
Q 40.71875 55.765625 39.015625 58.109375 
Q 35.84375 62.5 29.390625 62.5 
Q 22.015625 62.5 17.671875 55.6875 
Q 13.328125 48.875 12.84375 36.1875 
Q 15.875 40.625 20.453125 42.828125 
Q 24.65625 44.78125 29.828125 44.78125 
Q 38.625 44.78125 45.15625 39.15625 
Q 51.703125 33.546875 51.703125 22.40625 
Q 51.703125 12.890625 45.5 5.53125 
Q 39.3125 -1.8125 27.828125 -1.8125 
Q 18.015625 -1.8125 10.890625 5.640625 
Q 3.765625 13.09375 3.765625 30.71875 
Q 3.765625 43.75 6.9375 52.828125 
Q 13.03125 70.21875 29.25 70.21875 
z
M 28.609375 6 
Q 35.546875 6 38.984375 10.65625 
Q 42.4375 15.328125 42.4375 21.6875 
Q 42.4375 27.046875 39.359375 31.90625 
Q 36.28125 36.765625 28.171875 36.765625 
Q 22.515625 36.765625 18.234375 33 
Q 13.96875 29.25 13.96875 21.6875 
Q 13.96875 15.046875 17.84375 10.515625 
Q 21.734375 6 28.609375 6 
z
" id="Helvetica-54"/>
        <path d="M 27.203125 40.625 
Q 33.015625 40.625 36.28125 43.875 
Q 39.546875 47.125 39.546875 51.609375 
Q 39.546875 55.515625 36.421875 58.78125 
Q 33.296875 62.0625 26.90625 62.0625 
Q 20.5625 62.0625 17.71875 58.78125 
Q 14.890625 55.515625 14.890625 51.125 
Q 14.890625 46.1875 18.546875 43.40625 
Q 22.21875 40.625 27.203125 40.625 
z
M 27.734375 6 
Q 33.84375 6 37.859375 9.296875 
Q 41.890625 12.59375 41.890625 19.140625 
Q 41.890625 25.921875 37.734375 29.4375 
Q 33.59375 32.953125 27.09375 32.953125 
Q 20.796875 32.953125 16.8125 29.359375 
Q 12.84375 25.78125 12.84375 19.4375 
Q 12.84375 13.96875 16.484375 9.984375 
Q 20.125 6 27.734375 6 
z
M 15.234375 37.25 
Q 11.578125 38.8125 9.515625 40.921875 
Q 5.671875 44.828125 5.671875 51.078125 
Q 5.671875 58.890625 11.328125 64.5 
Q 17 70.125 27.390625 70.125 
Q 37.453125 70.125 43.15625 64.8125 
Q 48.875 59.515625 48.875 52.4375 
Q 48.875 45.90625 45.5625 41.84375 
Q 43.703125 39.546875 39.796875 37.359375 
Q 44.140625 35.359375 46.625 32.765625 
Q 51.265625 27.875 51.265625 20.0625 
Q 51.265625 10.84375 45.0625 4.421875 
Q 38.875 -2 27.546875 -2 
Q 17.328125 -2 10.265625 3.53125 
Q 3.21875 9.078125 3.21875 19.625 
Q 3.21875 25.828125 6.25 30.34375 
Q 9.28125 34.859375 15.234375 37.25 
z
" id="Helvetica-56"/>
       </defs>
       <use xlink:href="#Helvetica-54"/>
       <use x="55.615234" xlink:href="#Helvetica-56"/>
      </g>
     </g>
    </g>
    <g id="ytick_2">
     <g id="line2d_14">
      <g>
       <use style="fill:#555555;stroke:#555555;stroke-width:0.8;" x="44.789063" xlink:href="#m21e4de5db7" y="225.18"/>
      </g>
     </g>
     <g id="text_14">
      <!-- 69 -->
      <g style="fill:#555555;" transform="translate(23.330625 229.842734)scale(0.13 -0.13)">
       <defs>
        <path d="M 13.28125 16.890625 
Q 13.671875 9.625 18.890625 6.84375 
Q 21.578125 5.375 24.953125 5.375 
Q 31.25 5.375 35.6875 10.625 
Q 40.140625 15.875 42 31.9375 
Q 39.0625 27.296875 34.734375 25.40625 
Q 30.421875 23.53125 25.4375 23.53125 
Q 15.328125 23.53125 9.4375 29.828125 
Q 3.5625 36.140625 3.5625 46.046875 
Q 3.5625 55.5625 9.375 62.78125 
Q 15.1875 70.015625 26.515625 70.015625 
Q 41.796875 70.015625 47.609375 56.25 
Q 50.828125 48.6875 50.828125 37.3125 
Q 50.828125 24.46875 46.96875 14.546875 
Q 40.578125 -1.953125 25.296875 -1.953125 
Q 15.046875 -1.953125 9.71875 3.421875 
Q 4.390625 8.796875 4.390625 16.890625 
z
M 26.609375 31.25 
Q 31.84375 31.25 36.15625 34.6875 
Q 40.484375 38.140625 40.484375 46.734375 
Q 40.484375 54.4375 36.59375 58.21875 
Q 32.71875 62.015625 26.703125 62.015625 
Q 20.265625 62.015625 16.484375 57.6875 
Q 12.703125 53.375 12.703125 46.140625 
Q 12.703125 39.3125 16.015625 35.28125 
Q 19.34375 31.25 26.609375 31.25 
z
" id="Helvetica-57"/>
       </defs>
       <use xlink:href="#Helvetica-54"/>
       <use x="55.615234" xlink:href="#Helvetica-57"/>
      </g>
     </g>
    </g>
    <g id="ytick_3">
     <g id="line2d_15">
      <g>
       <use style="fill:#555555;stroke:#555555;stroke-width:0.8;" x="44.789063" xlink:href="#m21e4de5db7" y="196.92"/>
      </g>
     </g>
     <g id="text_15">
      <!-- 70 -->
      <g style="fill:#555555;" transform="translate(23.330625 201.582734)scale(0.13 -0.13)">
       <defs>
        <path d="M 52.296875 68.75 
L 52.296875 61.078125 
Q 48.921875 57.8125 43.328125 49.703125 
Q 37.75 41.609375 33.453125 32.234375 
Q 29.203125 23.09375 27 15.578125 
Q 25.59375 10.75 23.34375 0 
L 13.625 0 
Q 16.9375 20.015625 28.265625 39.84375 
Q 34.96875 51.46875 42.328125 59.90625 
L 3.65625 59.90625 
L 3.65625 68.75 
z
" id="Helvetica-55"/>
        <path d="M 27.046875 69.921875 
Q 40.625 69.921875 46.6875 58.734375 
Q 51.375 50.09375 51.375 35.0625 
Q 51.375 20.796875 47.125 11.46875 
Q 40.96875 -1.90625 27 -1.90625 
Q 14.40625 -1.90625 8.25 9.03125 
Q 3.125 18.171875 3.125 33.546875 
Q 3.125 45.453125 6.203125 54 
Q 11.96875 69.921875 27.046875 69.921875 
z
M 26.953125 6.109375 
Q 33.796875 6.109375 37.84375 12.15625 
Q 41.890625 18.21875 41.890625 34.71875 
Q 41.890625 46.625 38.953125 54.3125 
Q 36.03125 62.015625 27.59375 62.015625 
Q 19.828125 62.015625 16.234375 54.703125 
Q 12.640625 47.40625 12.640625 33.203125 
Q 12.640625 22.515625 14.9375 16.015625 
Q 18.453125 6.109375 26.953125 6.109375 
z
" id="Helvetica-48"/>
       </defs>
       <use xlink:href="#Helvetica-55"/>
       <use x="55.615234" xlink:href="#Helvetica-48"/>
      </g>
     </g>
    </g>
    <g id="ytick_4">
     <g id="line2d_16">
      <g>
       <use style="fill:#555555;stroke:#555555;stroke-width:0.8;" x="44.789063" xlink:href="#m21e4de5db7" y="168.66"/>
      </g>
     </g>
     <g id="text_16">
      <!-- 71 -->
      <g style="fill:#555555;" transform="translate(23.330625 173.322734)scale(0.13 -0.13)">
       <defs>
        <path d="M 9.578125 49.515625 
L 9.578125 56.25 
Q 19.09375 57.171875 22.84375 59.34375 
Q 26.609375 61.53125 28.46875 69.625 
L 35.40625 69.625 
L 35.40625 0 
L 26.03125 0 
L 26.03125 49.515625 
z
" id="Helvetica-49"/>
       </defs>
       <use xlink:href="#Helvetica-55"/>
       <use x="55.615234" xlink:href="#Helvetica-49"/>
      </g>
     </g>
    </g>
    <g id="ytick_5">
     <g id="line2d_17">
      <g>
       <use style="fill:#555555;stroke:#555555;stroke-width:0.8;" x="44.789063" xlink:href="#m21e4de5db7" y="140.4"/>
      </g>
     </g>
     <g id="text_17">
      <!-- 72 -->
      <g style="fill:#555555;" transform="translate(23.330625 145.062734)scale(0.13 -0.13)">
       <defs>
        <path d="M 3.125 0 
Q 3.609375 9.03125 6.859375 15.71875 
Q 10.109375 22.40625 19.53125 27.875 
L 28.90625 33.296875 
Q 35.203125 36.96875 37.75 39.546875 
Q 41.75 43.609375 41.75 48.828125 
Q 41.75 54.9375 38.078125 58.515625 
Q 34.421875 62.109375 28.328125 62.109375 
Q 19.28125 62.109375 15.828125 55.28125 
Q 13.96875 51.609375 13.765625 45.125 
L 4.828125 45.125 
Q 4.984375 54.25 8.203125 60.015625 
Q 13.921875 70.171875 28.375 70.171875 
Q 40.375 70.171875 45.921875 63.671875 
Q 51.46875 57.171875 51.46875 49.21875 
Q 51.46875 40.828125 45.5625 34.859375 
Q 42.140625 31.390625 33.296875 26.46875 
L 26.609375 22.75 
Q 21.828125 20.125 19.09375 17.71875 
Q 14.203125 13.484375 12.9375 8.296875 
L 51.125 8.296875 
L 51.125 0 
L 3.125 0 
z
" id="Helvetica-50"/>
       </defs>
       <use xlink:href="#Helvetica-55"/>
       <use x="55.615234" xlink:href="#Helvetica-50"/>
      </g>
     </g>
    </g>
    <g id="ytick_6">
     <g id="line2d_18">
      <g>
       <use style="fill:#555555;stroke:#555555;stroke-width:0.8;" x="44.789063" xlink:href="#m21e4de5db7" y="112.14"/>
      </g>
     </g>
     <g id="text_18">
      <!-- 73 -->
      <g style="fill:#555555;" transform="translate(23.330625 116.802734)scale(0.13 -0.13)">
       <defs>
        <path d="M 25.984375 -1.90625 
Q 13.578125 -1.90625 7.984375 4.90625 
Q 2.390625 11.71875 2.390625 21.484375 
L 11.578125 21.484375 
Q 12.15625 14.703125 14.109375 11.625 
Q 17.53125 6.109375 26.46875 6.109375 
Q 33.40625 6.109375 37.59375 9.8125 
Q 41.796875 13.53125 41.796875 19.390625 
Q 41.796875 26.609375 37.375 29.484375 
Q 32.953125 32.375 25.09375 32.375 
Q 24.21875 32.375 23.3125 32.34375 
Q 22.40625 32.328125 21.484375 32.28125 
L 21.484375 40.046875 
Q 22.859375 39.890625 23.78125 39.84375 
Q 24.703125 39.796875 25.78125 39.796875 
Q 30.71875 39.796875 33.890625 41.359375 
Q 39.453125 44.09375 39.453125 51.125 
Q 39.453125 56.34375 35.734375 59.171875 
Q 32.03125 62.015625 27.09375 62.015625 
Q 18.3125 62.015625 14.9375 56.15625 
Q 13.09375 52.9375 12.84375 46.96875 
L 4.15625 46.96875 
Q 4.15625 54.78125 7.28125 60.25 
Q 12.640625 70.015625 26.171875 70.015625 
Q 36.859375 70.015625 42.71875 65.25 
Q 48.578125 60.5 48.578125 51.46875 
Q 48.578125 45.015625 45.125 41.015625 
Q 42.96875 38.53125 39.546875 37.109375 
Q 45.0625 35.59375 48.15625 31.265625 
Q 51.265625 26.953125 51.265625 20.703125 
Q 51.265625 10.6875 44.671875 4.390625 
Q 38.09375 -1.90625 25.984375 -1.90625 
z
" id="Helvetica-51"/>
       </defs>
       <use xlink:href="#Helvetica-55"/>
       <use x="55.615234" xlink:href="#Helvetica-51"/>
      </g>
     </g>
    </g>
    <g id="ytick_7">
     <g id="line2d_19">
      <g>
       <use style="fill:#555555;stroke:#555555;stroke-width:0.8;" x="44.789063" xlink:href="#m21e4de5db7" y="83.88"/>
      </g>
     </g>
     <g id="text_19">
      <!-- 74 -->
      <g style="fill:#555555;" transform="translate(23.330625 88.542734)scale(0.13 -0.13)">
       <defs>
        <path d="M 33.0625 24.75 
L 33.0625 56.453125 
L 10.640625 24.75 
z
M 33.203125 0 
L 33.203125 17.09375 
L 2.546875 17.09375 
L 2.546875 25.6875 
L 34.578125 70.125 
L 42 70.125 
L 42 24.75 
L 52.296875 24.75 
L 52.296875 17.09375 
L 42 17.09375 
L 42 0 
z
" id="Helvetica-52"/>
       </defs>
       <use xlink:href="#Helvetica-55"/>
       <use x="55.615234" xlink:href="#Helvetica-52"/>
      </g>
     </g>
    </g>
    <g id="ytick_8">
     <g id="line2d_20">
      <g>
       <use style="fill:#555555;stroke:#555555;stroke-width:0.8;" x="44.789063" xlink:href="#m21e4de5db7" y="55.62"/>
      </g>
     </g>
     <g id="text_20">
      <!-- 75 -->
      <g style="fill:#555555;" transform="translate(23.330625 60.282734)scale(0.13 -0.13)">
       <defs>
        <path d="M 12.359375 17.828125 
Q 13.234375 10.296875 19.34375 7.421875 
Q 22.46875 5.953125 26.5625 5.953125 
Q 34.375 5.953125 38.125 10.9375 
Q 41.890625 15.921875 41.890625 21.96875 
Q 41.890625 29.296875 37.421875 33.296875 
Q 32.953125 37.3125 26.703125 37.3125 
Q 22.171875 37.3125 18.921875 35.546875 
Q 15.671875 33.796875 13.375 30.671875 
L 5.765625 31.109375 
L 11.078125 68.75 
L 47.40625 68.75 
L 47.40625 60.25 
L 17.671875 60.25 
L 14.703125 40.828125 
Q 17.140625 42.671875 19.34375 43.609375 
Q 23.25 45.21875 28.375 45.21875 
Q 37.984375 45.21875 44.671875 39.015625 
Q 51.375 32.8125 51.375 23.296875 
Q 51.375 13.375 45.234375 5.796875 
Q 39.109375 -1.765625 25.6875 -1.765625 
Q 17.140625 -1.765625 10.5625 3.046875 
Q 4 7.859375 3.21875 17.828125 
z
" id="Helvetica-53"/>
       </defs>
       <use xlink:href="#Helvetica-55"/>
       <use x="55.615234" xlink:href="#Helvetica-53"/>
      </g>
     </g>
    </g>
    <g id="ytick_9">
     <g id="line2d_21">
      <g>
       <use style="fill:#555555;stroke:#555555;stroke-width:0.8;" x="44.789063" xlink:href="#m21e4de5db7" y="27.36"/>
      </g>
     </g>
     <g id="text_21">
      <!-- 76 -->
      <g style="fill:#555555;" transform="translate(23.330625 32.022734)scale(0.13 -0.13)">
       <use xlink:href="#Helvetica-55"/>
       <use x="55.615234" xlink:href="#Helvetica-54"/>
      </g>
     </g>
    </g>
    <g id="text_22">
     <!-- Hearth Rate (BPM) -->
     <g style="fill:#555555;" transform="translate(16.620938 195.663203)rotate(-90)scale(0.13 -0.13)">
      <defs>
       <path d="M 7.859375 71.734375 
L 17.671875 71.734375 
L 17.671875 42.09375 
L 54.984375 42.09375 
L 54.984375 71.734375 
L 64.796875 71.734375 
L 64.796875 0 
L 54.984375 0 
L 54.984375 33.546875 
L 17.671875 33.546875 
L 17.671875 0 
L 7.859375 0 
z
" id="Helvetica-72"/>
       <path d="M 6.453125 71.96875 
L 15.234375 71.96875 
L 15.234375 45.21875 
Q 18.359375 49.171875 20.84375 50.78125 
Q 25.09375 53.5625 31.453125 53.5625 
Q 42.828125 53.5625 46.875 45.609375 
Q 49.078125 41.265625 49.078125 33.546875 
L 49.078125 0 
L 40.046875 0 
L 40.046875 32.953125 
Q 40.046875 38.71875 38.578125 41.40625 
Q 36.1875 45.703125 29.59375 45.703125 
Q 24.125 45.703125 19.671875 41.9375 
Q 15.234375 38.1875 15.234375 27.734375 
L 15.234375 0 
L 6.453125 0 
z
" id="Helvetica-104"/>
       <path id="Helvetica-32"/>
       <path d="M 40.96875 38.875 
Q 47.796875 38.875 51.78125 41.609375 
Q 55.765625 44.34375 55.765625 51.46875 
Q 55.765625 59.125 50.203125 61.921875 
Q 47.21875 63.375 42.234375 63.375 
L 18.5 63.375 
L 18.5 38.875 
z
M 8.796875 71.734375 
L 42 71.734375 
Q 50.203125 71.734375 55.515625 69.34375 
Q 65.625 64.75 65.625 52.390625 
Q 65.625 45.953125 62.953125 41.84375 
Q 60.296875 37.75 55.515625 35.25 
Q 59.71875 33.546875 61.84375 30.765625 
Q 63.96875 27.984375 64.203125 21.734375 
L 64.546875 12.109375 
Q 64.703125 8.015625 65.234375 6 
Q 66.109375 2.59375 68.359375 1.609375 
L 68.359375 0 
L 56.453125 0 
Q 55.953125 0.921875 55.65625 2.390625 
Q 55.375 3.859375 55.171875 8.0625 
L 54.59375 20.015625 
Q 54.25 27.046875 49.359375 29.4375 
Q 46.578125 30.765625 40.625 30.765625 
L 18.5 30.765625 
L 18.5 0 
L 8.796875 0 
z
" id="Helvetica-82"/>
       <path d="M 29.59375 72.90625 
Q 21.921875 58.015625 19.625 50.984375 
Q 16.15625 40.28125 16.15625 26.265625 
Q 16.15625 12.109375 20.125 0.390625 
Q 22.5625 -6.84375 29.734375 -20.40625 
L 23.828125 -20.40625 
Q 16.703125 -9.28125 14.984375 -6.203125 
Q 13.28125 -3.125 11.28125 2.15625 
Q 8.546875 9.375 7.46875 17.578125 
Q 6.9375 21.828125 6.9375 25.6875 
Q 6.9375 40.140625 11.46875 51.421875 
Q 14.359375 58.59375 23.484375 72.90625 
z
" id="Helvetica-40"/>
       <path d="M 34.578125 41.40625 
Q 40.71875 41.40625 44.140625 43.109375 
Q 49.515625 45.796875 49.515625 52.78125 
Q 49.515625 59.8125 43.796875 62.25 
Q 40.578125 63.625 34.234375 63.625 
L 16.890625 63.625 
L 16.890625 41.40625 
z
M 37.84375 8.296875 
Q 46.78125 8.296875 50.59375 13.484375 
Q 52.984375 16.75 52.984375 21.390625 
Q 52.984375 29.203125 46 32.03125 
Q 42.28125 33.546875 36.1875 33.546875 
L 16.890625 33.546875 
L 16.890625 8.296875 
z
M 7.375 71.734375 
L 38.1875 71.734375 
Q 50.78125 71.734375 56.109375 64.203125 
Q 59.234375 59.765625 59.234375 53.953125 
Q 59.234375 47.171875 55.375 42.828125 
Q 53.375 40.53125 49.609375 38.625 
Q 55.125 36.53125 57.859375 33.890625 
Q 62.703125 29.203125 62.703125 20.953125 
Q 62.703125 14.015625 58.34375 8.40625 
Q 51.859375 0 37.703125 0 
L 7.375 0 
z
" id="Helvetica-66"/>
       <path d="M 8.546875 71.734375 
L 40.828125 71.734375 
Q 50.390625 71.734375 56.25 66.328125 
Q 62.109375 60.9375 62.109375 51.171875 
Q 62.109375 42.78125 56.875 36.546875 
Q 51.65625 30.328125 40.828125 30.328125 
L 18.265625 30.328125 
L 18.265625 0 
L 8.546875 0 
z
M 52.296875 51.125 
Q 52.296875 59.03125 46.4375 61.859375 
Q 43.21875 63.375 37.59375 63.375 
L 18.265625 63.375 
L 18.265625 38.53125 
L 37.59375 38.53125 
Q 44.140625 38.53125 48.21875 41.3125 
Q 52.296875 44.09375 52.296875 51.125 
z
" id="Helvetica-80"/>
       <path d="M 3.46875 -20.40625 
Q 11.234375 -5.28125 13.484375 1.65625 
Q 16.890625 12.15625 16.890625 26.265625 
Q 16.890625 40.375 12.9375 52.09375 
Q 10.5 59.328125 3.328125 72.90625 
L 9.234375 72.90625 
Q 16.75 60.890625 18.328125 58.078125 
Q 19.921875 55.28125 21.78125 50.34375 
Q 24.125 44.234375 25.125 38.28125 
Q 26.125 32.328125 26.125 26.8125 
Q 26.125 12.359375 21.53125 1.03125 
Q 18.65625 -6.25 9.578125 -20.40625 
z
" id="Helvetica-41"/>
      </defs>
      <use xlink:href="#Helvetica-72"/>
      <use x="72.216797" xlink:href="#Helvetica-101"/>
      <use x="127.832031" xlink:href="#Helvetica-97"/>
      <use x="183.447266" xlink:href="#Helvetica-114"/>
      <use x="216.748047" xlink:href="#Helvetica-116"/>
      <use x="244.53125" xlink:href="#Helvetica-104"/>
      <use x="300.146484" xlink:href="#Helvetica-32"/>
      <use x="327.929688" xlink:href="#Helvetica-82"/>
      <use x="400.146484" xlink:href="#Helvetica-97"/>
      <use x="455.761719" xlink:href="#Helvetica-116"/>
      <use x="483.544922" xlink:href="#Helvetica-101"/>
      <use x="539.160156" xlink:href="#Helvetica-32"/>
      <use x="566.943359" xlink:href="#Helvetica-40"/>
      <use x="600.244141" xlink:href="#Helvetica-66"/>
      <use x="666.943359" xlink:href="#Helvetica-80"/>
      <use x="733.642578" xlink:href="#Helvetica-77"/>
      <use x="816.943359" xlink:href="#Helvetica-41"/>
     </g>
    </g>
   </g>
   <g id="line2d_22">
    <path clip-path="url(#p6936f367e0)" d="M 44.789062 100.032557 
L 46.959062 101.499432 
L 49.129063 107.950211 
L 51.299063 124.71815 
L 53.469063 162.040581 
L 55.639062 147.455854 
L 57.809062 102.376724 
L 59.979063 108.133964 
L 62.149063 93.771 
L 64.319062 102.140462 
L 66.489062 113.391808 
L 68.659063 102.925655 
L 70.829063 126.358208 
L 72.999062 127.75944 
L 75.169062 131.462814 
L 77.339063 108.34573 
L 79.509063 103.135195 
L 81.679062 102.573735 
L 83.849062 105.562628 
L 86.019063 103.862625 
L 88.189063 101.960566 
L 90.359062 195.208019 
L 92.529062 100.785279 
L 94.699063 103.983073 
L 96.869063 102.515696 
L 99.039062 108.303722 
L 101.209062 104.690136 
L 103.379063 100.368378 
L 105.549063 139.895191 
L 107.719063 145.766318 
L 109.889062 99.966739 
L 112.059062 100.847639 
L 114.229063 98.512574 
L 116.399063 119.503657 
L 118.569062 96.669368 
L 120.739062 121.777206 
L 122.909063 99.706823 
L 125.079063 97.26173 
L 127.249062 102.694059 
L 129.419062 99.758562 
L 131.589063 106.759394 
L 133.759063 102.713088 
L 135.929062 103.916105 
L 138.099062 98.497777 
L 140.269063 111.830423 
L 142.439063 100.246795 
L 144.609062 130.634392 
L 146.779062 114.782113 
L 148.949063 102.213694 
L 151.119063 139.580194 
L 153.289062 103.274479 
L 155.459062 98.395566 
L 157.629063 112.865936 
L 159.799063 98.190122 
L 161.969063 99.58893 
L 164.139062 167.986613 
L 166.309062 113.806672 
L 168.479063 103.126862 
L 170.649063 100.704418 
L 172.819062 104.073625 
L 174.989062 102.674954 
L 177.159063 133.086936 
L 179.329063 110.723551 
L 181.499062 96.631178 
L 183.669062 103.711627 
L 185.839063 100.13445 
L 188.009063 143.603575 
L 190.179062 97.681869 
L 192.349062 103.572865 
L 194.519063 100.555993 
L 196.689063 100.145857 
L 198.859062 110.04173 
L 201.029062 102.118132 
L 203.199063 141.620339 
L 205.369063 108.979098 
L 207.539062 152.479472 
L 209.709062 99.376585 
L 211.879063 100.555511 
L 214.049063 100.893755 
L 218.389062 101.033619 
L 220.559062 98.260704 
L 222.729063 104.900824 
L 224.899063 100.871239 
L 227.069062 101.429543 
L 229.239062 99.187611 
L 231.409063 101.62825 
L 233.579063 100.139806 
L 235.749062 97.048246 
L 237.919062 101.116016 
L 240.089063 103.375122 
L 242.259063 135.386091 
L 244.429062 150.221837 
L 246.599062 100.164361 
L 248.769063 134.999583 
L 250.939063 100.646251 
L 253.109062 124.457786 
L 255.279062 130.403667 
L 257.449063 96.966157 
L 259.619063 195.130872 
L 261.789062 99.039732 
L 263.959062 100.850574 
L 266.129063 104.837022 
L 268.299063 100.546283 
L 270.469063 102.49129 
L 272.639062 97.865454 
L 274.809062 101.392911 
L 276.979063 100.156527 
L 279.149063 100.948499 
L 281.319062 109.964863 
L 283.489062 96.458002 
L 285.659063 182.451187 
L 287.829063 97.466834 
L 289.999062 173.536014 
L 292.169062 102.120379 
L 294.339063 100.37175 
L 296.509063 97.893856 
L 298.679062 144.902815 
L 300.849062 102.517984 
L 303.019063 106.894697 
L 305.189063 143.962746 
L 307.359062 104.512715 
L 309.529062 98.237573 
L 311.699063 101.808848 
L 313.869063 132.896466 
L 316.039062 188.491395 
L 318.209062 133.677824 
L 320.379063 134.953194 
L 322.549063 125.015333 
L 324.719063 98.178402 
L 326.889062 114.916472 
L 329.059062 109.314495 
L 331.229063 96.718973 
L 333.399063 103.925146 
L 335.569062 100.712445 
L 337.739062 98.556739 
L 339.909063 102.565737 
L 342.079063 112.076163 
L 344.249062 101.085464 
L 346.419062 105.067505 
L 348.589063 136.780285 
L 350.759063 98.869595 
L 352.929062 98.978681 
L 355.099062 111.281026 
L 357.269063 96.739539 
L 359.439063 102.053948 
L 361.609062 102.8972 
L 363.779062 161.181453 
L 365.949063 102.319 
L 368.119063 99.366685 
L 370.289062 104.007607 
L 372.459062 101.734599 
L 374.629063 101.58829 
L 376.799063 142.994292 
L 378.969063 97.628955 
L 381.139062 118.134031 
L 383.309063 101.498311 
L 385.479063 125.254227 
L 387.649063 96.907808 
L 389.819062 133.033772 
L 391.989062 101.857058 
L 394.159063 97.933321 
L 396.329063 118.989028 
L 398.499062 105.118915 
L 400.669062 121.596916 
L 402.839063 115.832445 
L 405.009063 105.406904 
L 407.179062 99.910215 
L 409.349062 100.902091 
L 411.519063 102.954998 
L 413.689063 98.438416 
L 415.859062 99.242547 
L 418.029062 104.873806 
L 420.199063 127.416838 
L 422.369063 100.06488 
L 424.539062 98.725641 
L 426.709062 104.317533 
L 428.879063 115.40359 
L 431.049063 122.080655 
L 433.219063 112.142451 
L 435.389062 106.873001 
L 437.559063 97.419872 
L 439.729063 102.994943 
L 441.899063 109.507142 
L 444.069062 101.71778 
L 446.239062 98.38104 
L 448.409063 100.838522 
L 450.579063 118.887214 
L 452.749062 96.963572 
L 454.919062 154.736483 
L 457.089063 103.390625 
L 459.259063 130.189322 
L 461.429062 98.865693 
L 463.599062 102.936143 
L 465.769063 98.52389 
L 467.939063 101.654562 
L 470.109062 102.272345 
L 472.279062 161.466058 
L 474.449063 115.832139 
L 476.619063 125.266425 
L 478.789062 104.053916 
L 480.959062 98.971364 
L 483.129063 116.130823 
L 485.299063 98.220363 
L 487.469063 126.663325 
L 489.639062 100.337575 
L 491.809063 116.109648 
L 493.979063 100.287321 
L 496.149063 119.282266 
L 498.319062 146.111296 
L 500.489062 114.39992 
L 502.659063 96.311304 
L 504.829063 99.9681 
L 506.999062 114.111059 
L 509.169062 100.207831 
L 513.509063 103.233514 
L 515.679062 103.766868 
L 517.849062 99.875767 
L 520.019063 104.820612 
L 522.189063 101.449531 
L 524.359062 103.653746 
L 526.529062 150.059001 
L 528.699063 102.466626 
L 530.869063 140.822276 
L 533.039062 101.641701 
L 535.209062 112.803013 
L 537.379063 97.584638 
L 539.549063 123.154781 
L 541.719063 116.859335 
L 543.889062 98.895417 
L 546.059063 141.600581 
L 548.229063 109.159801 
L 550.399063 111.344359 
L 552.569062 110.332545 
L 554.739062 128.681745 
L 556.909063 166.051214 
L 559.079063 136.468052 
L 561.249062 176.999371 
L 563.419062 107.970776 
L 565.589063 118.207187 
L 567.759063 101.345729 
L 569.929062 111.763495 
L 572.099062 99.567772 
L 574.269063 102.965587 
L 576.439063 102.084641 
L 578.609062 94.661378 
L 580.779062 106.693226 
L 582.949063 140.285738 
L 585.119063 99.660274 
L 587.289062 107.058909 
L 589.459062 103.972428 
L 591.629063 94.38508 
L 593.799063 102.98235 
L 595.969063 99.546394 
L 598.139062 102.398733 
L 600.309063 96.247661 
L 602.479063 105.235325 
L 604.649063 99.120334 
L 606.819062 105.393609 
L 608.989062 96.607221 
L 611.159063 100.20563 
L 613.329063 97.761345 
L 615.499062 100.467504 
L 617.669062 102.931112 
L 619.839063 103.361064 
L 622.009063 103.188026 
L 624.179062 110.436786 
L 626.349062 108.381586 
L 628.519063 101.501643 
L 630.689063 98.431106 
L 632.859062 100.48246 
L 635.029062 101.848058 
L 637.199063 147.761505 
L 639.369063 109.226538 
L 641.539062 104.6253 
L 643.709062 104.372786 
L 645.879063 103.867987 
L 648.049063 105.469891 
L 650.219063 102.337945 
L 652.389062 92.668674 
L 654.559063 190.471844 
L 656.729063 100.191688 
L 658.899063 98.296843 
L 661.069062 139.198449 
L 663.239062 100.774152 
L 665.409063 102.656221 
L 667.579063 98.57804 
L 669.749062 102.231998 
L 671.919062 103.097651 
L 674.089063 98.892887 
L 676.259063 105.902644 
L 678.429062 96.910741 
L 680.599062 100.834991 
L 682.769063 127.617127 
L 684.939063 111.091506 
L 687.109062 99.263509 
L 689.279062 98.813076 
L 691.449063 100.725676 
L 693.619063 106.635592 
L 695.789062 101.382796 
L 697.959062 102.132971 
L 700.129063 101.006208 
L 702.299063 106.845574 
L 704.469063 97.825978 
L 706.639062 104.505513 
L 708.809063 99.615033 
L 710.979063 102.284104 
L 713.149063 164.687134 
L 715.319062 105.404527 
L 717.489062 99.403251 
L 719.659063 101.242161 
L 721.829063 103.664959 
L 723.999062 108.679706 
L 726.169062 101.980569 
L 728.339063 102.680712 
L 730.509063 100.77547 
L 732.679062 113.251475 
L 734.849062 109.081719 
L 737.019063 101.598341 
L 739.189063 100.014976 
L 741.359062 99.375677 
L 743.529062 106.835976 
L 745.699063 109.543937 
L 747.869063 96.506587 
L 750.039062 103.209565 
L 752.209062 100.702585 
L 754.379063 104.14219 
L 756.549063 105.201999 
L 758.719063 105.903119 
L 760.889062 101.115824 
L 763.059063 95.430817 
L 765.229063 108.041262 
L 767.399063 98.202419 
L 769.569062 103.765174 
L 771.739062 106.680018 
L 773.909063 102.570561 
L 776.079063 99.845841 
L 778.249062 100.187564 
L 780.419062 107.687824 
L 782.589063 94.017051 
L 784.759063 100.96218 
L 786.929062 100.556915 
L 789.099062 102.519059 
L 791.269063 101.780851 
L 793.439063 104.502907 
L 795.609062 102.59158 
L 797.779062 103.489287 
L 799.949063 113.108516 
L 802.119063 98.244341 
L 804.289062 110.561873 
L 806.459062 102.201655 
L 808.629063 101.437683 
L 810.799063 104.529264 
L 812.969063 99.274469 
L 815.139062 95.18295 
L 817.309063 103.491126 
L 819.479063 109.460735 
L 821.649063 133.730068 
L 823.819062 103.60781 
L 825.989062 67.828612 
L 825.989062 67.828612 
" style="fill:none;stroke:#ff0000;stroke-linecap:square;stroke-width:1.5;"/>
   </g>
   <g id="patch_3">
    <path d="M 44.789063 253.44 
L 44.789063 27.36 
" style="fill:none;stroke:#555555;stroke-linecap:square;stroke-linejoin:miter;"/>
   </g>
   <g id="patch_4">
    <path d="M 44.789062 253.44 
L 825.989062 253.44 
" style="fill:none;stroke:#555555;stroke-linecap:square;stroke-linejoin:miter;"/>
   </g>
   <g id="legend_1">
    <g id="line2d_23">
     <path d="M 712.125313 215.945156 
L 738.125313 215.945156 
" style="fill:none;stroke:#ff0000;stroke-linecap:square;stroke-width:1.5;"/>
    </g>
    <g id="line2d_24"/>
    <g id="text_23">
     <!-- BPM -->
     <g style="fill:#555555;" transform="translate(748.525313 220.495156)scale(0.13 -0.13)">
      <use xlink:href="#Helvetica-66"/>
      <use x="66.699219" xlink:href="#Helvetica-80"/>
      <use x="133.398438" xlink:href="#Helvetica-77"/>
     </g>
    </g>
    <g id="patch_5">
     <path d="M 712.125313 239.030312 
L 738.125313 239.030312 
L 738.125313 229.930312 
L 712.125313 229.930312 
z
" style="fill:#ff0000;opacity:0.25;stroke:#ff0000;stroke-linejoin:miter;"/>
    </g>
    <g id="text_24">
     <!-- Confidence -->
     <g style="fill:#555555;" transform="translate(748.525313 239.030312)scale(0.13 -0.13)">
      <defs>
       <path d="M 37.84375 73.6875 
Q 51.46875 73.6875 58.984375 66.5 
Q 66.5 59.328125 67.328125 50.203125 
L 57.859375 50.203125 
Q 56.25 57.125 51.4375 61.171875 
Q 46.625 65.234375 37.9375 65.234375 
Q 27.34375 65.234375 20.828125 57.78125 
Q 14.3125 50.34375 14.3125 34.96875 
Q 14.3125 22.359375 20.1875 14.515625 
Q 26.078125 6.6875 37.75 6.6875 
Q 48.484375 6.6875 54.109375 14.9375 
Q 57.078125 19.28125 58.546875 26.375 
L 68.015625 26.375 
Q 66.75 15.046875 59.625 7.375 
Q 51.078125 -1.859375 36.578125 -1.859375 
Q 24.078125 -1.859375 15.578125 5.71875 
Q 4.390625 15.71875 4.390625 36.625 
Q 4.390625 52.484375 12.796875 62.640625 
Q 21.875 73.6875 37.84375 73.6875 
z
M 35.890625 73.6875 
z
" id="Helvetica-67"/>
       <path d="M 8.640625 60.25 
Q 8.84375 65.71875 10.546875 68.265625 
Q 13.625 72.75 22.40625 72.75 
Q 23.25 72.75 24.125 72.703125 
Q 25 72.65625 26.125 72.5625 
L 26.125 64.546875 
Q 24.75 64.65625 24.140625 64.671875 
Q 23.53125 64.703125 23 64.703125 
Q 19 64.703125 18.21875 62.625 
Q 17.4375 60.546875 17.4375 52.046875 
L 26.125 52.046875 
L 26.125 45.125 
L 17.328125 45.125 
L 17.328125 0 
L 8.640625 0 
L 8.640625 45.125 
L 1.375 45.125 
L 1.375 52.046875 
L 8.640625 52.046875 
L 8.640625 60.25 
z
" id="Helvetica-102"/>
       <path d="M 6.453125 52.046875 
L 15.375 52.046875 
L 15.375 0 
L 6.453125 0 
z
M 6.453125 71.734375 
L 15.375 71.734375 
L 15.375 61.765625 
L 6.453125 61.765625 
z
" id="Helvetica-105"/>
       <path d="M 12.015625 25.53125 
Q 12.015625 17.140625 15.578125 11.46875 
Q 19.140625 5.8125 27 5.8125 
Q 33.109375 5.8125 37.03125 11.0625 
Q 40.96875 16.3125 40.96875 26.125 
Q 40.96875 36.03125 36.90625 40.796875 
Q 32.859375 45.5625 26.90625 45.5625 
Q 20.265625 45.5625 16.140625 40.484375 
Q 12.015625 35.40625 12.015625 25.53125 
z
M 25.25 53.21875 
Q 31.25 53.21875 35.296875 50.6875 
Q 37.640625 49.21875 40.625 45.5625 
L 40.625 71.96875 
L 49.078125 71.96875 
L 49.078125 0 
L 41.15625 0 
L 41.15625 7.28125 
Q 38.09375 2.4375 33.890625 0.28125 
Q 29.6875 -1.859375 24.265625 -1.859375 
Q 15.53125 -1.859375 9.125 5.484375 
Q 2.734375 12.84375 2.734375 25.046875 
Q 2.734375 36.46875 8.5625 44.84375 
Q 14.40625 53.21875 25.25 53.21875 
z
" id="Helvetica-100"/>
      </defs>
      <use xlink:href="#Helvetica-67"/>
      <use x="72.216797" xlink:href="#Helvetica-111"/>
      <use x="127.832031" xlink:href="#Helvetica-110"/>
      <use x="183.447266" xlink:href="#Helvetica-102"/>
      <use x="211.230469" xlink:href="#Helvetica-105"/>
      <use x="233.447266" xlink:href="#Helvetica-100"/>
      <use x="289.0625" xlink:href="#Helvetica-101"/>
      <use x="344.677734" xlink:href="#Helvetica-110"/>
      <use x="400.292969" xlink:href="#Helvetica-99"/>
      <use x="450.292969" xlink:href="#Helvetica-101"/>
     </g>
    </g>
   </g>
  </g>
  <g id="text_25">
   <!-- Daily average hearth rate -->
   <g style="fill:#555555;" transform="translate(332.967812 18.715)scale(0.16 -0.16)">
    <use xlink:href="#Helvetica-68"/>
    <use x="72.216797" xlink:href="#Helvetica-97"/>
    <use x="127.832031" xlink:href="#Helvetica-105"/>
    <use x="150.048828" xlink:href="#Helvetica-108"/>
    <use x="172.265625" xlink:href="#Helvetica-121"/>
    <use x="222.265625" xlink:href="#Helvetica-32"/>
    <use x="250.048828" xlink:href="#Helvetica-97"/>
    <use x="305.664062" xlink:href="#Helvetica-118"/>
    <use x="355.664062" xlink:href="#Helvetica-101"/>
    <use x="411.279297" xlink:href="#Helvetica-114"/>
    <use x="444.580078" xlink:href="#Helvetica-97"/>
    <use x="500.195312" xlink:href="#Helvetica-103"/>
    <use x="555.810547" xlink:href="#Helvetica-101"/>
    <use x="611.425781" xlink:href="#Helvetica-32"/>
    <use x="639.208984" xlink:href="#Helvetica-104"/>
    <use x="694.824219" xlink:href="#Helvetica-101"/>
    <use x="750.439453" xlink:href="#Helvetica-97"/>
    <use x="806.054688" xlink:href="#Helvetica-114"/>
    <use x="839.355469" xlink:href="#Helvetica-116"/>
    <use x="867.138672" xlink:href="#Helvetica-104"/>
    <use x="922.753906" xlink:href="#Helvetica-32"/>
    <use x="950.537109" xlink:href="#Helvetica-114"/>
    <use x="983.837891" xlink:href="#Helvetica-97"/>
    <use x="1039.453125" xlink:href="#Helvetica-116"/>
    <use x="1067.236328" xlink:href="#Helvetica-101"/>
   </g>
  </g>
 </g>
 <defs>
  <clipPath id="p6936f367e0">
   <rect height="226.08" width="781.2" x="44.789063" y="27.36"/>
  </clipPath>
 </defs>
</svg>
