<?xml version="1.0" encoding="utf-8" standalone="no"?>
<!DOCTYPE svg PUBLIC "-//W3C//DTD SVG 1.1//EN"
  "http://www.w3.org/Graphics/SVG/1.1/DTD/svg11.dtd">
<!-- Created with matplotlib (https://matplotlib.org/) -->
<svg height="279.929062pt" version="1.1" viewBox="0 0 855.035156 279.929062" width="855.035156pt" xmlns="http://www.w3.org/2000/svg" xmlns:xlink="http://www.w3.org/1999/xlink">
 <metadata>
  <rdf:RDF xmlns:cc="http://creativecommons.org/ns#" xmlns:dc="http://purl.org/dc/elements/1.1/" xmlns:rdf="http://www.w3.org/1999/02/22-rdf-syntax-ns#">
   <cc:Work>
    <dc:type rdf:resource="http://purl.org/dc/dcmitype/StillImage"/>
    <dc:date>2020-10-16T15:48:22.189887</dc:date>
    <dc:format>image/svg+xml</dc:format>
    <dc:creator>
     <cc:Agent>
      <dc:title>Matplotlib v3.3.1, https://matplotlib.org/</dc:title>
     </cc:Agent>
    </dc:creator>
   </cc:Work>
  </rdf:RDF>
 </metadata>
 <defs>
  <style type="text/css">*{stroke-linecap:butt;stroke-linejoin:round;}</style>
 </defs>
 <g id="figure_1">
  <g id="patch_1">
   <path d="M 0 279.929062 
L 855.035156 279.929062 
L 855.035156 0 
L 0 0 
z
" style="fill:#ffffff;"/>
  </g>
  <g id="axes_1">
   <g id="patch_2">
    <path d="M 66.635156 253.44 
L 847.835156 253.44 
L 847.835156 27.36 
L 66.635156 27.36 
z
" style="fill:#ffffff;"/>
   </g>
   <g id="matplotlib.axis_1">
    <g id="xtick_1">
     <g id="line2d_1">
      <defs>
       <path d="M 0 0 
L 0 3.5 
" id="me434d8f874" style="stroke:#555555;stroke-width:0.8;"/>
      </defs>
      <g>
       <use style="fill:#555555;stroke:#555555;stroke-width:0.8;" x="96.847311" xlink:href="#me434d8f874" y="253.44"/>
      </g>
     </g>
     <g id="text_1">
      <!-- Nov -->
      <g style="fill:#555555;" transform="translate(85.288483 269.765469)scale(0.13 -0.13)">
       <defs>
        <path d="M 7.625 71.734375 
L 19.09375 71.734375 
L 55.328125 13.625 
L 55.328125 71.734375 
L 64.546875 71.734375 
L 64.546875 0 
L 53.65625 0 
L 16.890625 58.0625 
L 16.890625 0 
L 7.625 0 
z
M 35.453125 71.734375 
z
" id="Helvetica-78"/>
        <path d="M 27.203125 5.671875 
Q 35.9375 5.671875 39.1875 12.28125 
Q 42.4375 18.890625 42.4375 27 
Q 42.4375 34.328125 40.09375 38.921875 
Q 36.375 46.140625 27.296875 46.140625 
Q 19.234375 46.140625 15.578125 39.984375 
Q 11.921875 33.84375 11.921875 25.140625 
Q 11.921875 16.796875 15.578125 11.234375 
Q 19.234375 5.671875 27.203125 5.671875 
z
M 27.546875 53.8125 
Q 37.640625 53.8125 44.625 47.0625 
Q 51.609375 40.328125 51.609375 27.25 
Q 51.609375 14.59375 45.453125 6.34375 
Q 39.3125 -1.90625 26.375 -1.90625 
Q 15.578125 -1.90625 9.21875 5.390625 
Q 2.875 12.703125 2.875 25 
Q 2.875 38.1875 9.5625 46 
Q 16.265625 53.8125 27.546875 53.8125 
z
M 27.25 53.5625 
z
" id="Helvetica-111"/>
        <path d="M 10.75 52.296875 
L 24.703125 9.71875 
L 39.3125 52.296875 
L 48.921875 52.296875 
L 29.203125 0 
L 19.828125 0 
L 0.53125 52.296875 
z
" id="Helvetica-118"/>
       </defs>
       <use xlink:href="#Helvetica-78"/>
       <use x="72.216797" xlink:href="#Helvetica-111"/>
       <use x="127.832031" xlink:href="#Helvetica-118"/>
      </g>
     </g>
    </g>
    <g id="xtick_2">
     <g id="line2d_2">
      <g>
       <use style="fill:#555555;stroke:#555555;stroke-width:0.8;" x="161.587642" xlink:href="#me434d8f874" y="253.44"/>
      </g>
     </g>
     <g id="text_2">
      <!-- Dec -->
      <g style="fill:#555555;" transform="translate(150.028814 269.765469)scale(0.13 -0.13)">
       <defs>
        <path d="M 35.15625 8.296875 
Q 40.09375 8.296875 43.265625 9.328125 
Q 48.921875 11.234375 52.546875 16.65625 
Q 55.421875 21 56.6875 27.78125 
Q 57.421875 31.84375 57.421875 35.296875 
Q 57.421875 48.640625 52.125 56 
Q 46.828125 63.375 35.0625 63.375 
L 17.828125 63.375 
L 17.828125 8.296875 
z
M 8.0625 71.734375 
L 37.109375 71.734375 
Q 51.90625 71.734375 60.0625 61.234375 
Q 67.328125 51.765625 67.328125 36.96875 
Q 67.328125 25.53125 63.03125 16.3125 
Q 55.46875 0 37.015625 0 
L 8.0625 0 
z
" id="Helvetica-68"/>
        <path d="M 28.21875 53.46875 
Q 33.796875 53.46875 39.015625 50.859375 
Q 44.234375 48.25 46.96875 44.09375 
Q 49.609375 40.140625 50.484375 34.859375 
Q 51.265625 31.25 51.265625 23.34375 
L 12.9375 23.34375 
Q 13.1875 15.375 16.703125 10.5625 
Q 20.21875 5.765625 27.59375 5.765625 
Q 34.46875 5.765625 38.578125 10.296875 
Q 40.921875 12.9375 41.890625 16.40625 
L 50.53125 16.40625 
Q 50.203125 13.53125 48.265625 9.984375 
Q 46.34375 6.453125 43.953125 4.203125 
Q 39.9375 0.296875 34.03125 -1.078125 
Q 30.859375 -1.859375 26.859375 -1.859375 
Q 17.09375 -1.859375 10.296875 5.25 
Q 3.515625 12.359375 3.515625 25.140625 
Q 3.515625 37.75 10.34375 45.609375 
Q 17.1875 53.46875 28.21875 53.46875 
z
M 42.234375 30.328125 
Q 41.703125 36.03125 39.75 39.453125 
Q 36.140625 45.796875 27.6875 45.796875 
Q 21.625 45.796875 17.515625 41.421875 
Q 13.421875 37.0625 13.1875 30.328125 
z
M 27.390625 53.5625 
z
" id="Helvetica-101"/>
        <path d="M 26.609375 53.8125 
Q 35.453125 53.8125 40.984375 49.515625 
Q 46.53125 45.21875 47.65625 34.71875 
L 39.109375 34.71875 
Q 38.328125 39.546875 35.546875 42.75 
Q 32.765625 45.953125 26.609375 45.953125 
Q 18.21875 45.953125 14.59375 37.75 
Q 12.25 32.421875 12.25 24.609375 
Q 12.25 16.75 15.5625 11.375 
Q 18.890625 6 26.03125 6 
Q 31.5 6 34.6875 9.34375 
Q 37.890625 12.703125 39.109375 18.5 
L 47.65625 18.5 
Q 46.1875 8.109375 40.328125 3.296875 
Q 34.46875 -1.515625 25.34375 -1.515625 
Q 15.09375 -1.515625 8.984375 5.984375 
Q 2.875 13.484375 2.875 24.703125 
Q 2.875 38.484375 9.5625 46.140625 
Q 16.265625 53.8125 26.609375 53.8125 
z
M 25.25 53.5625 
z
" id="Helvetica-99"/>
       </defs>
       <use xlink:href="#Helvetica-68"/>
       <use x="72.216797" xlink:href="#Helvetica-101"/>
       <use x="127.832031" xlink:href="#Helvetica-99"/>
      </g>
     </g>
    </g>
    <g id="xtick_3">
     <g id="line2d_3">
      <g>
       <use style="fill:#555555;stroke:#555555;stroke-width:0.8;" x="228.485985" xlink:href="#me434d8f874" y="253.44"/>
      </g>
     </g>
     <g id="text_3">
      <!-- Jan -->
      <g style="fill:#555555;" transform="translate(218.006766 269.765469)scale(0.13 -0.13)">
       <defs>
        <path d="M 42.828125 21.390625 
Q 42.828125 12.3125 40.140625 7.28125 
Q 35.15625 -1.90625 21.1875 -1.90625 
Q 13.140625 -1.90625 7.421875 2.46875 
Q 1.703125 6.84375 1.703125 18.015625 
L 1.703125 23.140625 
L 10.84375 23.140625 
L 10.84375 18.015625 
Q 10.84375 12.15625 13.453125 9.203125 
Q 16.0625 6.25 21.578125 6.25 
Q 29.34375 6.25 31.734375 11.578125 
Q 33.203125 14.84375 33.203125 23.921875 
L 33.203125 71.734375 
L 42.828125 71.734375 
z
" id="Helvetica-74"/>
        <path d="M 13.1875 13.921875 
Q 13.1875 10.109375 15.96875 7.90625 
Q 18.75 5.71875 22.5625 5.71875 
Q 27.203125 5.71875 31.546875 7.859375 
Q 38.875 11.421875 38.875 19.53125 
L 38.875 26.609375 
Q 37.25 25.59375 34.703125 24.90625 
Q 32.171875 24.21875 29.734375 23.921875 
L 24.421875 23.25 
Q 19.625 22.609375 17.234375 21.234375 
Q 13.1875 18.953125 13.1875 13.921875 
z
M 34.46875 31.6875 
Q 37.5 32.078125 38.53125 34.234375 
Q 39.109375 35.40625 39.109375 37.59375 
Q 39.109375 42.09375 35.90625 44.109375 
Q 32.71875 46.140625 26.765625 46.140625 
Q 19.875 46.140625 17 42.4375 
Q 15.375 40.375 14.890625 36.328125 
L 6.6875 36.328125 
Q 6.9375 46 12.96875 49.78125 
Q 19 53.5625 26.953125 53.5625 
Q 36.1875 53.5625 41.9375 50.046875 
Q 47.65625 46.53125 47.65625 39.109375 
L 47.65625 8.984375 
Q 47.65625 7.625 48.21875 6.78125 
Q 48.78125 5.953125 50.59375 5.953125 
Q 51.171875 5.953125 51.90625 6.03125 
Q 52.640625 6.109375 53.46875 6.25 
L 53.46875 -0.25 
Q 51.421875 -0.828125 50.34375 -0.96875 
Q 49.265625 -1.125 47.40625 -1.125 
Q 42.875 -1.125 40.828125 2.09375 
Q 39.75 3.8125 39.3125 6.9375 
Q 36.625 3.421875 31.59375 0.828125 
Q 26.5625 -1.765625 20.515625 -1.765625 
Q 13.234375 -1.765625 8.609375 2.65625 
Q 4 7.078125 4 13.71875 
Q 4 21 8.546875 25 
Q 13.09375 29 20.453125 29.9375 
z
M 27.203125 53.5625 
z
" id="Helvetica-97"/>
        <path d="M 6.453125 52.296875 
L 14.796875 52.296875 
L 14.796875 44.875 
Q 18.5 49.46875 22.65625 51.46875 
Q 26.8125 53.46875 31.890625 53.46875 
Q 43.015625 53.46875 46.921875 45.703125 
Q 49.078125 41.453125 49.078125 33.546875 
L 49.078125 0 
L 40.140625 0 
L 40.140625 32.953125 
Q 40.140625 37.75 38.71875 40.671875 
Q 36.375 45.5625 30.21875 45.5625 
Q 27.09375 45.5625 25.09375 44.921875 
Q 21.484375 43.84375 18.75 40.625 
Q 16.546875 38.03125 15.890625 35.265625 
Q 15.234375 32.515625 15.234375 27.390625 
L 15.234375 0 
L 6.453125 0 
z
M 27.09375 53.5625 
z
" id="Helvetica-110"/>
       </defs>
       <use xlink:href="#Helvetica-74"/>
       <use x="50" xlink:href="#Helvetica-97"/>
       <use x="105.615234" xlink:href="#Helvetica-110"/>
      </g>
     </g>
    </g>
    <g id="xtick_4">
     <g id="line2d_4">
      <g>
       <use style="fill:#555555;stroke:#555555;stroke-width:0.8;" x="295.384328" xlink:href="#me434d8f874" y="253.44"/>
      </g>
     </g>
     <g id="text_4">
      <!-- Feb -->
      <g style="fill:#555555;" transform="translate(284.185031 269.765469)scale(0.13 -0.13)">
       <defs>
        <path d="M 8.546875 71.734375 
L 58.296875 71.734375 
L 58.296875 62.9375 
L 18.265625 62.9375 
L 18.265625 41.15625 
L 53.46875 41.15625 
L 53.46875 32.625 
L 18.265625 32.625 
L 18.265625 0 
L 8.546875 0 
z
" id="Helvetica-70"/>
        <path d="M 5.765625 71.96875 
L 14.3125 71.96875 
L 14.3125 45.953125 
Q 17.1875 49.703125 21.1875 51.671875 
Q 25.203125 53.65625 29.890625 53.65625 
Q 39.65625 53.65625 45.734375 46.9375 
Q 51.8125 40.234375 51.8125 27.15625 
Q 51.8125 14.75 45.796875 6.546875 
Q 39.796875 -1.65625 29.15625 -1.65625 
Q 23.1875 -1.65625 19.09375 1.21875 
Q 16.65625 2.9375 13.875 6.6875 
L 13.875 0 
L 5.765625 0 
z
M 28.609375 6.109375 
Q 35.75 6.109375 39.28125 11.765625 
Q 42.828125 17.4375 42.828125 26.703125 
Q 42.828125 34.96875 39.28125 40.375 
Q 35.75 45.796875 28.859375 45.796875 
Q 22.859375 45.796875 18.328125 41.359375 
Q 13.8125 36.921875 13.8125 26.703125 
Q 13.8125 19.34375 15.671875 14.75 
Q 19.140625 6.109375 28.609375 6.109375 
z
" id="Helvetica-98"/>
       </defs>
       <use xlink:href="#Helvetica-70"/>
       <use x="61.083984" xlink:href="#Helvetica-101"/>
       <use x="116.699219" xlink:href="#Helvetica-98"/>
      </g>
     </g>
    </g>
    <g id="xtick_5">
     <g id="line2d_5">
      <g>
       <use style="fill:#555555;stroke:#555555;stroke-width:0.8;" x="357.966648" xlink:href="#me434d8f874" y="253.44"/>
      </g>
     </g>
     <g id="text_5">
      <!-- Mar -->
      <g style="fill:#555555;" transform="translate(346.773445 269.765469)scale(0.13 -0.13)">
       <defs>
        <path d="M 7.375 71.734375 
L 21.296875 71.734375 
L 41.890625 11.078125 
L 62.359375 71.734375 
L 76.125 71.734375 
L 76.125 0 
L 66.890625 0 
L 66.890625 42.328125 
Q 66.890625 44.53125 66.984375 49.609375 
Q 67.09375 54.6875 67.09375 60.5 
L 46.625 0 
L 37.015625 0 
L 16.40625 60.5 
L 16.40625 58.296875 
Q 16.40625 55.671875 16.53125 50.265625 
Q 16.65625 44.875 16.65625 42.328125 
L 16.65625 0 
L 7.375 0 
z
" id="Helvetica-77"/>
        <path d="M 6.6875 52.296875 
L 15.046875 52.296875 
L 15.046875 43.265625 
Q 16.0625 45.90625 20.0625 49.6875 
Q 24.078125 53.46875 29.296875 53.46875 
Q 29.546875 53.46875 30.125 53.421875 
Q 30.71875 53.375 32.125 53.21875 
L 32.125 43.953125 
Q 31.34375 44.09375 30.6875 44.140625 
Q 30.03125 44.1875 29.25 44.1875 
Q 22.609375 44.1875 19.046875 39.90625 
Q 15.484375 35.640625 15.484375 30.078125 
L 15.484375 0 
L 6.6875 0 
z
" id="Helvetica-114"/>
       </defs>
       <use xlink:href="#Helvetica-77"/>
       <use x="83.300781" xlink:href="#Helvetica-97"/>
       <use x="138.916016" xlink:href="#Helvetica-114"/>
      </g>
     </g>
    </g>
    <g id="xtick_6">
     <g id="line2d_6">
      <g>
       <use style="fill:#555555;stroke:#555555;stroke-width:0.8;" x="424.864991" xlink:href="#me434d8f874" y="253.44"/>
      </g>
     </g>
     <g id="text_6">
      <!-- Apr -->
      <g style="fill:#555555;" transform="translate(414.750381 269.765469)scale(0.13 -0.13)">
       <defs>
        <path d="M 44.4375 29.390625 
L 33.546875 61.078125 
L 21.96875 29.390625 
z
M 28.46875 71.734375 
L 39.453125 71.734375 
L 65.484375 0 
L 54.828125 0 
L 47.5625 21.484375 
L 19.1875 21.484375 
L 11.421875 0 
L 1.46875 0 
z
" id="Helvetica-65"/>
        <path d="M 28.515625 5.90625 
Q 34.671875 5.90625 38.75 11.0625 
Q 42.828125 16.21875 42.828125 26.46875 
Q 42.828125 32.71875 41.015625 37.203125 
Q 37.59375 45.84375 28.515625 45.84375 
Q 19.390625 45.84375 16.015625 36.71875 
Q 14.203125 31.84375 14.203125 24.3125 
Q 14.203125 18.265625 16.015625 14.015625 
Q 19.4375 5.90625 28.515625 5.90625 
z
M 5.765625 52.046875 
L 14.3125 52.046875 
L 14.3125 45.125 
Q 16.9375 48.6875 20.0625 50.640625 
Q 24.515625 53.5625 30.515625 53.5625 
Q 39.40625 53.5625 45.609375 46.75 
Q 51.8125 39.9375 51.8125 27.296875 
Q 51.8125 10.203125 42.875 2.875 
Q 37.203125 -1.765625 29.6875 -1.765625 
Q 23.78125 -1.765625 19.78125 0.828125 
Q 17.4375 2.296875 14.546875 5.859375 
L 14.546875 -20.84375 
L 5.765625 -20.84375 
z
" id="Helvetica-112"/>
       </defs>
       <use xlink:href="#Helvetica-65"/>
       <use x="66.699219" xlink:href="#Helvetica-112"/>
       <use x="122.314453" xlink:href="#Helvetica-114"/>
      </g>
     </g>
    </g>
    <g id="xtick_7">
     <g id="line2d_7">
      <g>
       <use style="fill:#555555;stroke:#555555;stroke-width:0.8;" x="489.605322" xlink:href="#me434d8f874" y="253.44"/>
      </g>
     </g>
     <g id="text_7">
      <!-- May -->
      <g style="fill:#555555;" transform="translate(477.326416 269.765469)scale(0.13 -0.13)">
       <defs>
        <path d="M 39.109375 52.296875 
L 48.828125 52.296875 
Q 46.96875 47.265625 40.578125 29.34375 
Q 35.796875 15.875 32.5625 7.375 
Q 24.953125 -12.640625 21.828125 -17.03125 
Q 18.703125 -21.4375 11.078125 -21.4375 
Q 9.234375 -21.4375 8.234375 -21.28125 
Q 7.234375 -21.140625 5.765625 -20.75 
L 5.765625 -12.75 
Q 8.0625 -13.375 9.078125 -13.515625 
Q 10.109375 -13.671875 10.890625 -13.671875 
Q 13.328125 -13.671875 14.46875 -12.859375 
Q 15.625 -12.0625 16.40625 -10.890625 
Q 16.65625 -10.5 18.15625 -6.875 
Q 19.671875 -3.265625 20.359375 -1.515625 
L 1.03125 52.296875 
L 10.984375 52.296875 
L 25 9.71875 
z
M 24.953125 53.5625 
z
" id="Helvetica-121"/>
       </defs>
       <use xlink:href="#Helvetica-77"/>
       <use x="83.300781" xlink:href="#Helvetica-97"/>
       <use x="138.916016" xlink:href="#Helvetica-121"/>
      </g>
     </g>
    </g>
    <g id="xtick_8">
     <g id="line2d_8">
      <g>
       <use style="fill:#555555;stroke:#555555;stroke-width:0.8;" x="556.503665" xlink:href="#me434d8f874" y="253.44"/>
      </g>
     </g>
     <g id="text_8">
      <!-- Jun -->
      <g style="fill:#555555;" transform="translate(546.024446 269.765469)scale(0.13 -0.13)">
       <defs>
        <path d="M 15.234375 52.296875 
L 15.234375 17.578125 
Q 15.234375 13.578125 16.5 11.03125 
Q 18.84375 6.34375 25.25 6.34375 
Q 34.421875 6.34375 37.75 14.546875 
Q 39.546875 18.953125 39.546875 26.609375 
L 39.546875 52.296875 
L 48.34375 52.296875 
L 48.34375 0 
L 40.046875 0 
L 40.140625 7.71875 
Q 38.421875 4.734375 35.890625 2.6875 
Q 30.859375 -1.421875 23.6875 -1.421875 
Q 12.5 -1.421875 8.453125 6.0625 
Q 6.25 10.0625 6.25 16.75 
L 6.25 52.296875 
z
M 27.296875 53.5625 
z
" id="Helvetica-117"/>
       </defs>
       <use xlink:href="#Helvetica-74"/>
       <use x="50" xlink:href="#Helvetica-117"/>
       <use x="105.615234" xlink:href="#Helvetica-110"/>
      </g>
     </g>
    </g>
    <g id="xtick_9">
     <g id="line2d_9">
      <g>
       <use style="fill:#555555;stroke:#555555;stroke-width:0.8;" x="621.243996" xlink:href="#me434d8f874" y="253.44"/>
      </g>
     </g>
     <g id="text_9">
      <!-- Jul -->
      <g style="fill:#555555;" transform="translate(612.935168 269.765469)scale(0.13 -0.13)">
       <defs>
        <path d="M 6.6875 71.734375 
L 15.484375 71.734375 
L 15.484375 0 
L 6.6875 0 
z
" id="Helvetica-108"/>
       </defs>
       <use xlink:href="#Helvetica-74"/>
       <use x="50" xlink:href="#Helvetica-117"/>
       <use x="105.615234" xlink:href="#Helvetica-108"/>
      </g>
     </g>
    </g>
    <g id="xtick_10">
     <g id="line2d_10">
      <g>
       <use style="fill:#555555;stroke:#555555;stroke-width:0.8;" x="688.142339" xlink:href="#me434d8f874" y="253.44"/>
      </g>
     </g>
     <g id="text_10">
      <!-- Aug -->
      <g style="fill:#555555;" transform="translate(676.577417 269.765469)scale(0.13 -0.13)">
       <defs>
        <path d="M 24.90625 53.21875 
Q 31.0625 53.21875 35.640625 50.203125 
Q 38.140625 48.484375 40.71875 45.21875 
L 40.71875 51.8125 
L 48.828125 51.8125 
L 48.828125 4.25 
Q 48.828125 -5.71875 45.90625 -11.46875 
Q 40.4375 -22.125 25.25 -22.125 
Q 16.796875 -22.125 11.03125 -18.328125 
Q 5.28125 -14.546875 4.59375 -6.5 
L 13.53125 -6.5 
Q 14.15625 -10.015625 16.0625 -11.921875 
Q 19.046875 -14.84375 25.4375 -14.84375 
Q 35.546875 -14.84375 38.671875 -7.71875 
Q 40.53125 -3.515625 40.375 7.28125 
Q 37.75 3.265625 34.03125 1.3125 
Q 30.328125 -0.640625 24.21875 -0.640625 
Q 15.71875 -0.640625 9.34375 5.390625 
Q 2.984375 11.421875 2.984375 25.34375 
Q 2.984375 38.484375 9.40625 45.84375 
Q 15.828125 53.21875 24.90625 53.21875 
z
M 40.71875 26.375 
Q 40.71875 36.078125 36.71875 40.765625 
Q 32.71875 45.453125 26.515625 45.453125 
Q 17.234375 45.453125 13.8125 36.765625 
Q 12.015625 32.125 12.015625 24.609375 
Q 12.015625 15.765625 15.59375 11.15625 
Q 19.1875 6.546875 25.25 6.546875 
Q 34.71875 6.546875 38.578125 15.09375 
Q 40.71875 19.921875 40.71875 26.375 
z
M 25.921875 53.5625 
z
" id="Helvetica-103"/>
       </defs>
       <use xlink:href="#Helvetica-65"/>
       <use x="66.699219" xlink:href="#Helvetica-117"/>
       <use x="122.314453" xlink:href="#Helvetica-103"/>
      </g>
     </g>
    </g>
    <g id="xtick_11">
     <g id="line2d_11">
      <g>
       <use style="fill:#555555;stroke:#555555;stroke-width:0.8;" x="755.040681" xlink:href="#me434d8f874" y="253.44"/>
      </g>
     </g>
     <g id="text_11">
      <!-- Sep -->
      <g style="fill:#555555;" transform="translate(743.475759 270.019375)scale(0.13 -0.13)">
       <defs>
        <path d="M 13.96875 23.140625 
Q 14.3125 17.046875 16.84375 13.234375 
Q 21.6875 6.109375 33.890625 6.109375 
Q 39.359375 6.109375 43.84375 7.671875 
Q 52.546875 10.6875 52.546875 18.5 
Q 52.546875 24.359375 48.875 26.859375 
Q 45.171875 29.296875 37.25 31.109375 
L 27.546875 33.296875 
Q 18.015625 35.453125 14.0625 38.03125 
Q 7.234375 42.53125 7.234375 51.46875 
Q 7.234375 61.140625 13.921875 67.328125 
Q 20.609375 73.53125 32.859375 73.53125 
Q 44.140625 73.53125 52.015625 68.078125 
Q 59.90625 62.640625 59.90625 50.6875 
L 50.78125 50.6875 
Q 50.046875 56.453125 47.65625 59.515625 
Q 43.21875 65.140625 32.5625 65.140625 
Q 23.96875 65.140625 20.203125 61.515625 
Q 16.453125 57.90625 16.453125 53.125 
Q 16.453125 47.859375 20.84375 45.40625 
Q 23.734375 43.84375 33.890625 41.5 
L 43.953125 39.203125 
Q 51.21875 37.546875 55.171875 34.671875 
Q 62.015625 29.640625 62.015625 20.0625 
Q 62.015625 8.15625 53.34375 3.03125 
Q 44.671875 -2.09375 33.203125 -2.09375 
Q 19.828125 -2.09375 12.25 4.734375 
Q 4.6875 11.53125 4.828125 23.140625 
z
M 33.59375 73.6875 
z
" id="Helvetica-83"/>
       </defs>
       <use xlink:href="#Helvetica-83"/>
       <use x="66.699219" xlink:href="#Helvetica-101"/>
       <use x="122.314453" xlink:href="#Helvetica-112"/>
      </g>
     </g>
    </g>
    <g id="xtick_12">
     <g id="line2d_12">
      <g>
       <use style="fill:#555555;stroke:#555555;stroke-width:0.8;" x="819.781013" xlink:href="#me434d8f874" y="253.44"/>
      </g>
     </g>
     <g id="text_12">
      <!-- Oct -->
      <g style="fill:#555555;" transform="translate(809.66945 269.765469)scale(0.13 -0.13)">
       <defs>
        <path d="M 38.578125 73.6875 
Q 57.5625 73.6875 66.703125 61.46875 
Q 73.828125 51.953125 73.828125 37.109375 
Q 73.828125 21.046875 65.671875 10.40625 
Q 56.109375 -2.09375 38.375 -2.09375 
Q 21.828125 -2.09375 12.359375 8.84375 
Q 3.90625 19.390625 3.90625 35.5 
Q 3.90625 50.046875 11.140625 60.40625 
Q 20.40625 73.6875 38.578125 73.6875 
z
M 39.546875 6.59375 
Q 52.390625 6.59375 58.125 15.796875 
Q 63.875 25 63.875 36.96875 
Q 63.875 49.609375 57.25 57.328125 
Q 50.640625 65.046875 39.15625 65.046875 
Q 28.03125 65.046875 21 57.390625 
Q 13.96875 49.75 13.96875 34.859375 
Q 13.96875 22.953125 20 14.765625 
Q 26.03125 6.59375 39.546875 6.59375 
z
M 38.875 73.6875 
z
" id="Helvetica-79"/>
        <path d="M 8.203125 66.890625 
L 17.09375 66.890625 
L 17.09375 52.296875 
L 25.4375 52.296875 
L 25.4375 45.125 
L 17.09375 45.125 
L 17.09375 10.984375 
Q 17.09375 8.25 18.953125 7.328125 
Q 19.96875 6.78125 22.359375 6.78125 
Q 23 6.78125 23.734375 6.8125 
Q 24.46875 6.84375 25.4375 6.9375 
L 25.4375 0 
Q 23.921875 -0.4375 22.28125 -0.625 
Q 20.65625 -0.828125 18.75 -0.828125 
Q 12.59375 -0.828125 10.390625 2.3125 
Q 8.203125 5.46875 8.203125 10.5 
L 8.203125 45.125 
L 1.125 45.125 
L 1.125 52.296875 
L 8.203125 52.296875 
z
" id="Helvetica-116"/>
       </defs>
       <use xlink:href="#Helvetica-79"/>
       <use x="77.783203" xlink:href="#Helvetica-99"/>
       <use x="127.783203" xlink:href="#Helvetica-116"/>
      </g>
     </g>
    </g>
   </g>
   <g id="matplotlib.axis_2">
    <g id="ytick_1">
     <g id="line2d_13">
      <defs>
       <path d="M 0 0 
L -3.5 0 
" id="mf69b9e57c5" style="stroke:#555555;stroke-width:0.8;"/>
      </defs>
      <g>
       <use style="fill:#555555;stroke:#555555;stroke-width:0.8;" x="66.635156" xlink:href="#mf69b9e57c5" y="229.443655"/>
      </g>
     </g>
     <g id="text_13">
      <!-- 5000 -->
      <g style="fill:#555555;" transform="translate(30.718281 234.10639)scale(0.13 -0.13)">
       <defs>
        <path d="M 12.359375 17.828125 
Q 13.234375 10.296875 19.34375 7.421875 
Q 22.46875 5.953125 26.5625 5.953125 
Q 34.375 5.953125 38.125 10.9375 
Q 41.890625 15.921875 41.890625 21.96875 
Q 41.890625 29.296875 37.421875 33.296875 
Q 32.953125 37.3125 26.703125 37.3125 
Q 22.171875 37.3125 18.921875 35.546875 
Q 15.671875 33.796875 13.375 30.671875 
L 5.765625 31.109375 
L 11.078125 68.75 
L 47.40625 68.75 
L 47.40625 60.25 
L 17.671875 60.25 
L 14.703125 40.828125 
Q 17.140625 42.671875 19.34375 43.609375 
Q 23.25 45.21875 28.375 45.21875 
Q 37.984375 45.21875 44.671875 39.015625 
Q 51.375 32.8125 51.375 23.296875 
Q 51.375 13.375 45.234375 5.796875 
Q 39.109375 -1.765625 25.6875 -1.765625 
Q 17.140625 -1.765625 10.5625 3.046875 
Q 4 7.859375 3.21875 17.828125 
z
" id="Helvetica-53"/>
        <path d="M 27.046875 69.921875 
Q 40.625 69.921875 46.6875 58.734375 
Q 51.375 50.09375 51.375 35.0625 
Q 51.375 20.796875 47.125 11.46875 
Q 40.96875 -1.90625 27 -1.90625 
Q 14.40625 -1.90625 8.25 9.03125 
Q 3.125 18.171875 3.125 33.546875 
Q 3.125 45.453125 6.203125 54 
Q 11.96875 69.921875 27.046875 69.921875 
z
M 26.953125 6.109375 
Q 33.796875 6.109375 37.84375 12.15625 
Q 41.890625 18.21875 41.890625 34.71875 
Q 41.890625 46.625 38.953125 54.3125 
Q 36.03125 62.015625 27.59375 62.015625 
Q 19.828125 62.015625 16.234375 54.703125 
Q 12.640625 47.40625 12.640625 33.203125 
Q 12.640625 22.515625 14.9375 16.015625 
Q 18.453125 6.109375 26.953125 6.109375 
z
" id="Helvetica-48"/>
       </defs>
       <use xlink:href="#Helvetica-53"/>
       <use x="55.615234" xlink:href="#Helvetica-48"/>
       <use x="111.230469" xlink:href="#Helvetica-48"/>
       <use x="166.845703" xlink:href="#Helvetica-48"/>
      </g>
     </g>
    </g>
    <g id="ytick_2">
     <g id="line2d_14">
      <g>
       <use style="fill:#555555;stroke:#555555;stroke-width:0.8;" x="66.635156" xlink:href="#mf69b9e57c5" y="194.514987"/>
      </g>
     </g>
     <g id="text_14">
      <!-- 10000 -->
      <g style="fill:#555555;" transform="translate(23.489063 199.177721)scale(0.13 -0.13)">
       <defs>
        <path d="M 9.578125 49.515625 
L 9.578125 56.25 
Q 19.09375 57.171875 22.84375 59.34375 
Q 26.609375 61.53125 28.46875 69.625 
L 35.40625 69.625 
L 35.40625 0 
L 26.03125 0 
L 26.03125 49.515625 
z
" id="Helvetica-49"/>
       </defs>
       <use xlink:href="#Helvetica-49"/>
       <use x="55.615234" xlink:href="#Helvetica-48"/>
       <use x="111.230469" xlink:href="#Helvetica-48"/>
       <use x="166.845703" xlink:href="#Helvetica-48"/>
       <use x="222.460938" xlink:href="#Helvetica-48"/>
      </g>
     </g>
    </g>
    <g id="ytick_3">
     <g id="line2d_15">
      <g>
       <use style="fill:#555555;stroke:#555555;stroke-width:0.8;" x="66.635156" xlink:href="#mf69b9e57c5" y="159.586318"/>
      </g>
     </g>
     <g id="text_15">
      <!-- 15000 -->
      <g style="fill:#555555;" transform="translate(23.489063 164.249052)scale(0.13 -0.13)">
       <use xlink:href="#Helvetica-49"/>
       <use x="55.615234" xlink:href="#Helvetica-53"/>
       <use x="111.230469" xlink:href="#Helvetica-48"/>
       <use x="166.845703" xlink:href="#Helvetica-48"/>
       <use x="222.460938" xlink:href="#Helvetica-48"/>
      </g>
     </g>
    </g>
    <g id="ytick_4">
     <g id="line2d_16">
      <g>
       <use style="fill:#555555;stroke:#555555;stroke-width:0.8;" x="66.635156" xlink:href="#mf69b9e57c5" y="124.657649"/>
      </g>
     </g>
     <g id="text_16">
      <!-- 20000 -->
      <g style="fill:#555555;" transform="translate(23.489063 129.320383)scale(0.13 -0.13)">
       <defs>
        <path d="M 3.125 0 
Q 3.609375 9.03125 6.859375 15.71875 
Q 10.109375 22.40625 19.53125 27.875 
L 28.90625 33.296875 
Q 35.203125 36.96875 37.75 39.546875 
Q 41.75 43.609375 41.75 48.828125 
Q 41.75 54.9375 38.078125 58.515625 
Q 34.421875 62.109375 28.328125 62.109375 
Q 19.28125 62.109375 15.828125 55.28125 
Q 13.96875 51.609375 13.765625 45.125 
L 4.828125 45.125 
Q 4.984375 54.25 8.203125 60.015625 
Q 13.921875 70.171875 28.375 70.171875 
Q 40.375 70.171875 45.921875 63.671875 
Q 51.46875 57.171875 51.46875 49.21875 
Q 51.46875 40.828125 45.5625 34.859375 
Q 42.140625 31.390625 33.296875 26.46875 
L 26.609375 22.75 
Q 21.828125 20.125 19.09375 17.71875 
Q 14.203125 13.484375 12.9375 8.296875 
L 51.125 8.296875 
L 51.125 0 
L 3.125 0 
z
" id="Helvetica-50"/>
       </defs>
       <use xlink:href="#Helvetica-50"/>
       <use x="55.615234" xlink:href="#Helvetica-48"/>
       <use x="111.230469" xlink:href="#Helvetica-48"/>
       <use x="166.845703" xlink:href="#Helvetica-48"/>
       <use x="222.460938" xlink:href="#Helvetica-48"/>
      </g>
     </g>
    </g>
    <g id="ytick_5">
     <g id="line2d_17">
      <g>
       <use style="fill:#555555;stroke:#555555;stroke-width:0.8;" x="66.635156" xlink:href="#mf69b9e57c5" y="89.72898"/>
      </g>
     </g>
     <g id="text_17">
      <!-- 25000 -->
      <g style="fill:#555555;" transform="translate(23.489063 94.391715)scale(0.13 -0.13)">
       <use xlink:href="#Helvetica-50"/>
       <use x="55.615234" xlink:href="#Helvetica-53"/>
       <use x="111.230469" xlink:href="#Helvetica-48"/>
       <use x="166.845703" xlink:href="#Helvetica-48"/>
       <use x="222.460938" xlink:href="#Helvetica-48"/>
      </g>
     </g>
    </g>
    <g id="ytick_6">
     <g id="line2d_18">
      <g>
       <use style="fill:#555555;stroke:#555555;stroke-width:0.8;" x="66.635156" xlink:href="#mf69b9e57c5" y="54.800311"/>
      </g>
     </g>
     <g id="text_18">
      <!-- 30000 -->
      <g style="fill:#555555;" transform="translate(23.489063 59.463046)scale(0.13 -0.13)">
       <defs>
        <path d="M 25.984375 -1.90625 
Q 13.578125 -1.90625 7.984375 4.90625 
Q 2.390625 11.71875 2.390625 21.484375 
L 11.578125 21.484375 
Q 12.15625 14.703125 14.109375 11.625 
Q 17.53125 6.109375 26.46875 6.109375 
Q 33.40625 6.109375 37.59375 9.8125 
Q 41.796875 13.53125 41.796875 19.390625 
Q 41.796875 26.609375 37.375 29.484375 
Q 32.953125 32.375 25.09375 32.375 
Q 24.21875 32.375 23.3125 32.34375 
Q 22.40625 32.328125 21.484375 32.28125 
L 21.484375 40.046875 
Q 22.859375 39.890625 23.78125 39.84375 
Q 24.703125 39.796875 25.78125 39.796875 
Q 30.71875 39.796875 33.890625 41.359375 
Q 39.453125 44.09375 39.453125 51.125 
Q 39.453125 56.34375 35.734375 59.171875 
Q 32.03125 62.015625 27.09375 62.015625 
Q 18.3125 62.015625 14.9375 56.15625 
Q 13.09375 52.9375 12.84375 46.96875 
L 4.15625 46.96875 
Q 4.15625 54.78125 7.28125 60.25 
Q 12.640625 70.015625 26.171875 70.015625 
Q 36.859375 70.015625 42.71875 65.25 
Q 48.578125 60.5 48.578125 51.46875 
Q 48.578125 45.015625 45.125 41.015625 
Q 42.96875 38.53125 39.546875 37.109375 
Q 45.0625 35.59375 48.15625 31.265625 
Q 51.265625 26.953125 51.265625 20.703125 
Q 51.265625 10.6875 44.671875 4.390625 
Q 38.09375 -1.90625 25.984375 -1.90625 
z
" id="Helvetica-51"/>
       </defs>
       <use xlink:href="#Helvetica-51"/>
       <use x="55.615234" xlink:href="#Helvetica-48"/>
       <use x="111.230469" xlink:href="#Helvetica-48"/>
       <use x="166.845703" xlink:href="#Helvetica-48"/>
       <use x="222.460938" xlink:href="#Helvetica-48"/>
      </g>
     </g>
    </g>
    <g id="text_19">
     <!-- Steps -->
     <g style="fill:#555555;" transform="translate(16.779375 157.020703)rotate(-90)scale(0.13 -0.13)">
      <defs>
       <path d="M 11.671875 16.40625 
Q 12.0625 12.015625 13.875 9.671875 
Q 17.1875 5.421875 25.390625 5.421875 
Q 30.28125 5.421875 33.984375 7.546875 
Q 37.703125 9.671875 37.703125 14.109375 
Q 37.703125 17.484375 34.71875 19.234375 
Q 32.8125 20.3125 27.203125 21.734375 
L 20.21875 23.484375 
Q 13.53125 25.140625 10.359375 27.203125 
Q 4.6875 30.765625 4.6875 37.0625 
Q 4.6875 44.484375 10.03125 49.0625 
Q 15.375 53.65625 24.421875 53.65625 
Q 36.234375 53.65625 41.453125 46.734375 
Q 44.734375 42.328125 44.625 37.25 
L 36.328125 37.25 
Q 36.078125 40.234375 34.234375 42.671875 
Q 31.203125 46.140625 23.734375 46.140625 
Q 18.75 46.140625 16.1875 44.234375 
Q 13.625 42.328125 13.625 39.203125 
Q 13.625 35.796875 17 33.734375 
Q 18.953125 32.515625 22.75 31.59375 
L 28.5625 30.171875 
Q 38.03125 27.875 41.265625 25.734375 
Q 46.390625 22.359375 46.390625 15.140625 
Q 46.390625 8.15625 41.09375 3.078125 
Q 35.796875 -2 24.953125 -2 
Q 13.28125 -2 8.421875 3.296875 
Q 3.5625 8.59375 3.21875 16.40625 
z
M 24.65625 53.5625 
z
" id="Helvetica-115"/>
      </defs>
      <use xlink:href="#Helvetica-83"/>
      <use x="66.699219" xlink:href="#Helvetica-116"/>
      <use x="94.482422" xlink:href="#Helvetica-101"/>
      <use x="150.097656" xlink:href="#Helvetica-112"/>
      <use x="205.712891" xlink:href="#Helvetica-115"/>
     </g>
    </g>
   </g>
   <g id="line2d_19">
    <path clip-path="url(#pf51e73f24a)" d="M 66.635156 185.014389 
L 68.793167 186.229906 
L 70.951178 169.897261 
L 73.109189 162.925498 
L 75.2672 151.895025 
L 77.425211 184.860702 
L 79.583223 183.8338 
L 81.741234 185.328747 
L 83.899245 139.991335 
L 86.057256 222.807208 
L 88.215267 192.628838 
L 90.373278 159.299903 
L 92.531289 190.127946 
L 94.6893 161.682038 
L 96.847311 179.090486 
L 99.005322 161.716967 
L 101.163333 176.813137 
L 103.321344 194.424172 
L 105.479355 165.307634 
L 107.637366 192.670753 
L 109.795377 217.20465 
L 111.953388 193.096883 
L 114.111399 114.800779 
L 116.26941 182.60431 
L 118.427421 182.702111 
L 120.585432 131.825012 
L 122.743444 193.921199 
L 124.901455 180.515576 
L 127.059466 201.40292 
L 129.217477 192.11888 
L 133.533499 152.363069 
L 135.69151 134.039489 
L 137.849521 179.125415 
L 140.007532 187.228866 
L 142.165543 193.928185 
L 144.323554 160.766907 
L 146.481565 194.053928 
L 148.639576 122.506043 
L 150.797587 176.17045 
L 155.113609 207.634194 
L 157.27162 182.618282 
L 159.429631 168.723657 
L 161.587642 193.767513 
L 163.745653 183.861743 
L 165.903665 193.900242 
L 168.061676 180.026575 
L 170.219687 214.35447 
L 172.377698 188.444384 
L 174.535709 178.426842 
L 176.69372 193.36234 
L 178.851731 123.260502 
L 181.009742 185.838705 
L 183.167753 205.266031 
L 185.325764 219.558842 
L 187.483775 173.886115 
L 189.641786 179.397859 
L 191.799797 205.16823 
L 193.957808 208.102239 
L 196.115819 218.846297 
L 198.27383 204.588415 
L 200.431841 175.520776 
L 202.589852 193.851342 
L 204.747863 141.479296 
L 206.905874 216.003104 
L 209.063886 194.256514 
L 211.221897 180.138346 
L 213.379908 183.498484 
L 215.537919 172.097767 
L 217.69593 121.094925 
L 219.853941 187.047237 
L 222.011952 37.636364 
L 224.169963 181.626308 
L 226.327974 139.383576 
L 228.485985 206.181162 
L 230.643996 227.173292 
L 232.802007 214.417342 
L 234.960018 212.335593 
L 237.118029 166.593009 
L 239.27604 207.522423 
L 241.434051 211.727834 
L 243.592062 205.678189 
L 245.750073 209.667043 
L 247.908084 193.208654 
L 250.066095 213.15991 
L 252.224107 196.338263 
L 254.382118 194.298429 
L 256.540129 203.833955 
L 258.69814 204.777029 
L 260.856151 220.236458 
L 263.014162 182.876754 
L 265.172173 152.70537 
L 267.330184 165.740749 
L 269.488195 219.964015 
L 271.646206 219.041898 
L 273.804217 184.55333 
L 275.962228 193.397269 
L 278.120239 152.293212 
L 280.27825 212.265736 
L 282.436261 106.089569 
L 284.594272 181.682194 
L 286.752283 132.733157 
L 288.910294 162.457454 
L 291.068305 188.996257 
L 293.226316 193.998042 
L 295.384328 211.895492 
L 297.542339 211.148019 
L 299.70035 188.982285 
L 301.858361 185.035346 
L 304.016372 167.026124 
L 306.174383 151.622581 
L 308.332394 114.570249 
L 310.490405 184.630173 
L 312.648416 156.952696 
L 314.806427 193.348369 
L 316.964438 203.219211 
L 319.122449 123.90319 
L 321.28046 133.501588 
L 323.438471 192.181751 
L 325.596482 200.55066 
L 327.754493 150.001891 
L 329.912504 206.663178 
L 332.070515 213.25771 
L 334.228526 168.765572 
L 336.386537 120.354437 
L 338.544549 138.286816 
L 340.70256 159.705075 
L 342.860571 84.545566 
L 345.018582 205.454646 
L 347.176593 191.469207 
L 349.334604 176.233321 
L 351.492615 194.528958 
L 353.650626 191.986151 
L 355.808637 220.466987 
L 357.966648 146.404238 
L 360.124659 206.677149 
L 362.28267 220.599716 
L 364.440681 170.693634 
L 366.598692 219.719514 
L 368.756703 171.895181 
L 370.914714 170.777463 
L 373.072725 224.085597 
L 375.230736 232.377663 
L 377.388747 190.086031 
L 379.546758 240.041013 
L 381.70477 228.745082 
L 383.862781 220.753402 
L 386.020792 177.162424 
L 388.178803 234.501327 
L 390.336814 217.295464 
L 392.494825 180.166289 
L 394.652836 208.220996 
L 396.810847 222.185478 
L 398.968858 198.936956 
L 401.126869 200.788175 
L 403.28488 194.277472 
L 405.442891 206.292934 
L 407.600902 191.140877 
L 409.758913 212.021235 
L 411.916924 173.446014 
L 414.074935 193.187697 
L 416.232946 205.769004 
L 418.390957 198.147568 
L 420.548968 222.709408 
L 422.706979 178.294113 
L 424.864991 184.364715 
L 427.023002 209.01737 
L 429.181013 183.666142 
L 431.339024 186.439478 
L 433.497035 192.950182 
L 435.655046 227.480664 
L 437.813057 188.709842 
L 439.971068 198.776284 
L 442.129079 189.855502 
L 444.28709 182.436653 
L 446.445101 188.64697 
L 448.603112 224.881971 
L 450.761123 181.689179 
L 452.919134 194.081871 
L 455.077145 198.287283 
L 457.235156 213.620968 
L 459.393167 226.810034 
L 461.551178 213.152924 
L 463.709189 194.382258 
L 465.8672 186.104163 
L 468.025211 194.179671 
L 470.183223 213.928341 
L 472.341234 169.673717 
L 474.499245 206.230062 
L 476.657256 159.174159 
L 478.815267 221.263361 
L 480.973278 192.754582 
L 483.131289 232.859679 
L 485.2893 181.814923 
L 487.447311 204.951673 
L 489.605322 190.903362 
L 491.763333 174.256359 
L 493.921344 166.138936 
L 496.079355 176.226336 
L 498.237366 174.640574 
L 500.395377 222.695436 
L 502.553388 175.157518 
L 504.711399 170.686649 
L 506.86941 207.298879 
L 509.027421 172.370211 
L 511.185432 230.805873 
L 513.343444 154.305103 
L 515.501455 195.367246 
L 517.659466 151.454924 
L 519.817477 136.18411 
L 521.975488 151.734353 
L 524.133499 215.15783 
L 526.29151 165.398448 
L 528.449521 168.646814 
L 530.607532 183.952557 
L 532.765543 205.789961 
L 534.923554 164.650975 
L 537.081565 178.056598 
L 539.239576 231.665119 
L 541.397587 181.088406 
L 543.555598 225.468773 
L 545.713609 194.480058 
L 547.87162 137.860686 
L 550.029631 234.375583 
L 552.187642 123.484046 
L 554.345653 211.825635 
L 556.503665 123.344331 
L 558.661676 184.0294 
L 560.819687 159.264974 
L 562.977698 159.984505 
L 565.135709 182.443639 
L 567.29372 164.490303 
L 569.451731 185.524347 
L 571.609742 124.916121 
L 573.767753 171.098807 
L 575.925764 171.238522 
L 578.083775 53.500965 
L 580.241786 137.7559 
L 582.399797 77.853233 
L 584.557808 137.720971 
L 586.715819 145.118863 
L 588.87383 188.996257 
L 591.031841 170.588848 
L 593.189852 218.783426 
L 597.505874 120.822481 
L 599.663886 232.063305 
L 601.821897 235.863545 
L 603.979908 181.200178 
L 606.137919 189.890431 
L 608.29593 181.221135 
L 610.453941 170.162719 
L 612.611952 134.416719 
L 614.769963 231.148174 
L 616.927974 179.083501 
L 619.085985 229.813899 
L 621.243996 182.101338 
L 623.402007 208.06731 
L 625.560018 149.932034 
L 627.718029 237.72175 
L 629.87604 235.360572 
L 632.034051 196.282377 
L 634.192062 147.361284 
L 636.350073 192.64281 
L 638.508084 226.58649 
L 640.666095 227.802008 
L 642.824107 193.599855 
L 644.982118 176.603565 
L 647.140129 177.916883 
L 649.29814 219.090798 
L 651.456151 200.264245 
L 653.614162 221.675519 
L 655.772173 152.397998 
L 657.930184 94.486265 
L 660.088195 235.507272 
L 662.246206 186.292778 
L 664.404217 176.289207 
L 666.562228 175.41599 
L 668.720239 186.844651 
L 673.036261 221.025846 
L 675.194272 181.03252 
L 677.352283 226.768119 
L 679.510294 201.340048 
L 681.668305 224.427898 
L 683.826316 183.987486 
L 685.984328 189.97426 
L 688.142339 228.479624 
L 690.30035 213.320582 
L 692.458361 214.564042 
L 694.616372 173.774343 
L 696.774383 165.538163 
L 698.932394 221.703462 
L 701.090405 194.682644 
L 703.248416 171.245507 
L 705.406427 188.45137 
L 707.564438 195.248489 
L 709.722449 208.102239 
L 711.88046 232.05632 
L 714.038471 239.321483 
L 716.196482 237.582035 
L 718.354493 238.483195 
L 720.512504 236.289674 
L 722.670515 186.816708 
L 724.828526 222.59065 
L 726.986537 216.708663 
L 729.144549 228.43771 
L 731.30256 219.950043 
L 733.460571 205.580389 
L 735.618582 166.928324 
L 737.776593 223.359081 
L 739.934604 171.063878 
L 742.092615 224.805128 
L 744.250626 243.163636 
L 746.408637 184.322801 
L 748.566648 133.292016 
L 750.724659 137.651114 
L 752.88267 162.143096 
L 755.040681 129.659434 
L 757.198692 160.836764 
L 759.356703 105.349081 
L 761.514714 158.873773 
L 763.672725 166.662866 
L 765.830736 168.374371 
L 767.988747 195.807347 
L 770.146758 237.875436 
L 772.30477 220.82326 
L 774.462781 212.461337 
L 776.620792 174.787274 
L 778.778803 190.519147 
L 780.936814 233.942468 
L 783.094825 199.041742 
L 785.252836 205.64326 
L 787.410847 239.468183 
L 789.568858 232.30082 
L 791.726869 218.168681 
L 793.88488 227.089463 
L 796.042891 213.83054 
L 798.200902 219.684585 
L 800.358913 218.748497 
L 802.516924 233.558252 
L 804.674935 233.781796 
L 806.832946 235.409472 
L 808.990957 229.499541 
L 811.148968 184.88166 
L 813.306979 190.707762 
L 815.464991 193.082911 
L 817.623002 189.638944 
L 819.781013 222.485864 
L 821.939024 182.995512 
L 824.097035 232.699007 
L 826.255046 222.171506 
L 828.413057 199.900987 
L 830.571068 190.735705 
L 832.729079 186.760822 
L 834.88709 212.63598 
L 839.203112 228.877811 
L 841.361123 222.276292 
L 843.519134 230.449601 
L 845.677145 194.563887 
L 847.835156 238.085008 
L 847.835156 238.085008 
" style="fill:none;stroke:#808080;stroke-linecap:square;"/>
   </g>
   <g id="line2d_20">
    <path clip-path="url(#pf51e73f24a)" d="M 66.635156 179.588212 
L 68.793167 175.200147 
L 70.951178 172.539542 
L 73.109189 171.097881 
L 75.2672 171.586267 
L 77.425211 171.366246 
L 79.583223 175.649168 
L 81.741234 179.414833 
L 83.899245 181.580591 
L 86.057256 182.993957 
L 88.215267 182.11735 
L 90.373278 180.20573 
L 92.531289 178.004174 
L 94.6893 173.352186 
L 96.847311 173.292656 
L 99.005322 174.437082 
L 101.163333 176.134147 
L 103.321344 181.518164 
L 105.479355 186.087262 
L 107.637366 185.841003 
L 109.795377 183.677291 
L 111.953388 178.652339 
L 114.111399 171.6443 
L 116.26941 167.632903 
L 118.427421 166.12681 
L 120.585432 170.095597 
L 122.743444 178.111726 
L 124.901455 181.749943 
L 127.059466 182.491138 
L 129.217477 179.370947 
L 131.375488 172.066073 
L 133.533499 167.217827 
L 135.69151 166.355597 
L 137.849521 168.716356 
L 140.007532 174.553472 
L 142.165543 175.189788 
L 144.323554 174.261632 
L 146.481565 171.046198 
L 148.639576 171.435376 
L 150.797587 174.710802 
L 152.955598 180.040091 
L 157.27162 187.00754 
L 159.429631 186.602698 
L 161.587642 185.667007 
L 163.745653 187.230563 
L 165.903665 189.854372 
L 168.061676 191.677107 
L 170.219687 191.863927 
L 172.377698 186.826075 
L 174.535709 181.296242 
L 176.69372 177.821798 
L 178.851731 177.873557 
L 181.009742 181.656705 
L 183.167753 186.774781 
L 185.325764 190.672824 
L 187.483775 195.100234 
L 189.641786 196.870527 
L 191.799797 199.474551 
L 193.957808 200.682245 
L 196.115819 202.085063 
L 200.431841 190.903232 
L 202.589852 186.460403 
L 204.747863 184.199699 
L 206.905874 184.917881 
L 209.063886 185.800408 
L 211.221897 180.263995 
L 213.379908 176.443449 
L 215.537919 159.679473 
L 217.69593 149.029279 
L 219.853941 139.71164 
L 222.011952 139.126197 
L 224.169963 148.987125 
L 226.327974 166.957855 
L 228.485985 183.913307 
L 230.643996 199.839407 
L 232.802007 203.356863 
L 234.960018 204.848445 
L 237.118029 202.299543 
L 239.27604 201.542046 
L 241.434051 202.32925 
L 243.592062 203.982672 
L 245.750073 205.409833 
L 247.908084 203.572847 
L 250.066095 202.037537 
L 252.224107 201.256825 
L 254.382118 202.095083 
L 256.540129 202.546683 
L 258.69814 199.056056 
L 260.856151 193.51841 
L 263.014162 188.944495 
L 265.172173 186.92044 
L 267.330184 187.971609 
L 269.488195 191.523791 
L 271.646206 192.955368 
L 273.804217 193.854761 
L 275.962228 185.44455 
L 278.120239 176.48712 
L 280.27825 166.572898 
L 282.436261 160.383833 
L 284.594272 157.870594 
L 286.752283 161.4978 
L 288.910294 168.017805 
L 291.068305 181.55671 
L 293.226316 189.920958 
L 295.384328 196.981777 
L 297.542339 196.74292 
L 299.70035 190.313058 
L 301.858361 178.337336 
L 304.016372 167.855965 
L 306.174383 159.195009 
L 308.332394 157.899655 
L 310.490405 162.875774 
L 312.648416 166.988683 
L 314.806427 168.318659 
L 316.964438 168.92895 
L 319.122449 166.608698 
L 321.28046 166.145248 
L 323.438471 169.898814 
L 325.596482 176.841035 
L 327.754493 184.42699 
L 329.912504 184.274814 
L 332.070515 176.894867 
L 334.228526 167.038468 
L 336.386537 153.885198 
L 338.544549 145.874847 
L 340.70256 144.989424 
L 342.860571 151.942569 
L 345.018582 164.422741 
L 347.176593 175.424502 
L 349.334604 185.193847 
L 351.492615 190.943708 
L 353.650626 190.857756 
L 355.808637 192.609193 
L 357.966648 192.804104 
L 360.124659 194.812844 
L 362.28267 195.159849 
L 364.440681 192.737009 
L 366.598692 194.340513 
L 368.756703 195.146579 
L 370.914714 196.995278 
L 373.072725 205.016214 
L 375.230736 211.162668 
L 377.388747 217.999289 
L 379.546758 219.296144 
L 381.70477 218.205538 
L 383.862781 215.90008 
L 386.020792 213.054939 
L 388.178803 209.113053 
L 390.336814 207.631652 
L 392.494825 206.333498 
L 394.652836 206.828669 
L 396.810847 204.475085 
L 401.126869 202.564268 
L 403.28488 201.213159 
L 405.442891 198.320432 
L 407.600902 196.924949 
L 409.758913 195.779311 
L 411.916924 195.161442 
L 414.074935 196.868459 
L 416.232946 198.410844 
L 418.390957 198.332888 
L 420.548968 199.276249 
L 422.706979 196.856275 
L 424.864991 193.955571 
L 427.023002 192.327908 
L 429.181013 193.035426 
L 433.497035 198.057225 
L 435.655046 198.64552 
L 437.813057 198.130294 
L 439.971068 195.656464 
L 442.129079 194.930554 
L 444.28709 193.12882 
L 446.445101 194.711454 
L 448.603112 195.810139 
L 450.761123 197.670385 
L 452.919134 201.033533 
L 455.077145 204.881438 
L 457.235156 206.99944 
L 459.393167 208.548959 
L 461.551178 206.319525 
L 463.709189 203.328354 
L 465.8672 198.118616 
L 468.025211 195.39693 
L 470.183223 191.853134 
L 474.499245 191.472795 
L 476.657256 194.778551 
L 478.815267 197.147492 
L 480.973278 201.805834 
L 483.131289 202.184855 
L 485.2893 200.82484 
L 487.447311 193.915844 
L 489.605322 187.884394 
L 491.763333 180.721918 
L 493.921344 180.662216 
L 496.079355 180.787574 
L 498.237366 182.756724 
L 500.395377 186.508512 
L 502.553388 187.395555 
L 504.711399 190.05477 
L 506.86941 189.885568 
L 509.027421 189.396444 
L 511.185432 187.560341 
L 513.343444 181.166804 
L 515.501455 171.374506 
L 519.817477 163.491989 
L 521.975488 166.866607 
L 524.133499 170.465817 
L 526.29151 176.932846 
L 528.449521 180.444358 
L 530.607532 182.011983 
L 532.765543 184.257417 
L 534.923554 187.800739 
L 537.081565 193.49641 
L 539.239576 197.77534 
L 541.397587 196.369787 
L 543.555598 197.722378 
L 545.713609 190.693801 
L 547.87162 184.886317 
L 550.029631 178.22071 
L 552.187642 172.575315 
L 554.345653 168.538634 
L 556.503665 166.879406 
L 558.661676 163.865715 
L 560.819687 166.509164 
L 562.977698 167.094013 
L 565.135709 168.177289 
L 567.29372 166.244961 
L 569.451731 164.865348 
L 573.767753 145.991561 
L 575.925764 132.747816 
L 578.083775 121.548875 
L 580.241786 117.503245 
L 582.399797 120.669418 
L 584.557808 130.836948 
L 586.715819 151.249288 
L 588.87383 165.238979 
L 591.031841 174.205024 
L 593.189852 179.492935 
L 595.347863 184.300956 
L 597.505874 187.248738 
L 599.663886 193.008206 
L 601.821897 195.222524 
L 603.979908 194.941712 
L 606.137919 189.086677 
L 608.29593 181.964391 
L 610.453941 177.434205 
L 612.611952 182.256445 
L 614.769963 187.658353 
L 616.927974 194.636317 
L 619.085985 196.066563 
L 621.243996 198.884012 
L 623.402007 198.646899 
L 625.560018 202.032291 
L 627.718029 200.968285 
L 629.87604 200.714208 
L 632.034051 198.234022 
L 634.192062 199.229158 
L 636.350073 198.630276 
L 638.508084 200.003772 
L 640.666095 200.584513 
L 642.824107 200.870591 
L 644.982118 197.542067 
L 647.140129 197.073615 
L 649.29814 195.950173 
L 651.456151 189.653545 
L 653.614162 185.270245 
L 655.772173 178.790357 
L 657.930184 174.290684 
L 660.088195 175.384993 
L 662.246206 177.972287 
L 664.404217 183.407057 
L 666.562228 190.399097 
L 668.720239 190.65797 
L 670.87825 196.951783 
L 673.036261 201.913749 
L 675.194272 206.555499 
L 677.352283 207.564116 
L 679.510294 206.240091 
L 681.668305 205.342658 
L 683.826316 206.007483 
L 688.142339 206.466997 
L 690.30035 202.794742 
L 692.458361 200.721396 
L 694.616372 196.753537 
L 696.774383 191.819327 
L 698.932394 190.108888 
L 701.090405 189.302012 
L 703.248416 190.942027 
L 705.406427 195.251026 
L 707.564438 201.134392 
L 709.722449 211.217977 
L 711.88046 222.164841 
L 714.038471 230.09741 
L 716.196482 231.56201 
L 718.354493 229.664784 
L 720.512504 224.485595 
L 722.670515 220.246412 
L 724.828526 218.138078 
L 726.986537 217.16713 
L 729.144549 213.584141 
L 731.30256 211.878033 
L 733.460571 204.634879 
L 735.618582 200.929775 
L 737.776593 201.633145 
L 739.934604 203.546682 
L 742.092615 202.080333 
L 744.250626 195.796693 
L 746.408637 182.514658 
L 748.566648 168.204277 
L 750.724659 155.590068 
L 752.88267 144.895714 
L 755.040681 141.965951 
L 757.198692 143.004629 
L 759.356703 145.768754 
L 761.514714 152.195573 
L 763.672725 165.874675 
L 765.830736 180.402306 
L 767.988747 196.634497 
L 770.146758 204.737001 
L 772.30477 207.361589 
L 774.462781 207.664885 
L 776.620792 204.888292 
L 778.778803 202.980643 
L 780.936814 206.422571 
L 783.094825 211.770302 
L 785.252836 217.856242 
L 787.410847 222.303545 
L 791.726869 224.015957 
L 793.88488 222.85528 
L 796.042891 221.368816 
L 798.200902 222.061398 
L 802.516924 227.531794 
L 804.674935 227.097947 
L 806.832946 222.801214 
L 808.990957 215.323897 
L 811.148968 205.964448 
L 813.306979 200.359926 
L 815.464991 196.599383 
L 817.623002 198.516687 
L 819.781013 203.923331 
L 821.939024 207.9055 
L 824.097035 209.609319 
L 826.255046 208.214195 
L 828.413057 204.684377 
L 830.571068 203.764778 
L 832.729079 204.067153 
L 834.88709 208.285222 
L 837.045101 215.066993 
L 839.203112 218.778843 
L 841.361123 221.691137 
L 843.519134 221.534018 
L 845.677145 221.084481 
L 847.835156 220.96483 
L 847.835156 220.96483 
" style="fill:none;stroke:#000000;stroke-linecap:square;"/>
   </g>
   <g id="patch_3">
    <path d="M 66.635156 253.44 
L 66.635156 27.36 
" style="fill:none;stroke:#555555;stroke-linecap:square;stroke-linejoin:miter;"/>
   </g>
   <g id="patch_4">
    <path d="M 66.635156 253.44 
L 847.835156 253.44 
" style="fill:none;stroke:#555555;stroke-linecap:square;stroke-linejoin:miter;"/>
   </g>
   <g id="legend_1">
    <g id="line2d_21">
     <path d="M 740.4775 43.835469 
L 766.4775 43.835469 
" style="fill:none;stroke:#808080;stroke-linecap:square;"/>
    </g>
    <g id="line2d_22"/>
    <g id="text_20">
     <!-- Raw -->
     <g style="fill:#555555;" transform="translate(776.8775 48.385469)scale(0.13 -0.13)">
      <defs>
       <path d="M 40.96875 38.875 
Q 47.796875 38.875 51.78125 41.609375 
Q 55.765625 44.34375 55.765625 51.46875 
Q 55.765625 59.125 50.203125 61.921875 
Q 47.21875 63.375 42.234375 63.375 
L 18.5 63.375 
L 18.5 38.875 
z
M 8.796875 71.734375 
L 42 71.734375 
Q 50.203125 71.734375 55.515625 69.34375 
Q 65.625 64.75 65.625 52.390625 
Q 65.625 45.953125 62.953125 41.84375 
Q 60.296875 37.75 55.515625 35.25 
Q 59.71875 33.546875 61.84375 30.765625 
Q 63.96875 27.984375 64.203125 21.734375 
L 64.546875 12.109375 
Q 64.703125 8.015625 65.234375 6 
Q 66.109375 2.59375 68.359375 1.609375 
L 68.359375 0 
L 56.453125 0 
Q 55.953125 0.921875 55.65625 2.390625 
Q 55.375 3.859375 55.171875 8.0625 
L 54.59375 20.015625 
Q 54.25 27.046875 49.359375 29.4375 
Q 46.578125 30.765625 40.625 30.765625 
L 18.5 30.765625 
L 18.5 0 
L 8.796875 0 
z
" id="Helvetica-82"/>
       <path d="M 10.5 52.296875 
L 20.5625 11.078125 
L 30.765625 52.296875 
L 40.625 52.296875 
L 50.875 11.328125 
L 61.578125 52.296875 
L 70.359375 52.296875 
L 55.171875 0 
L 46.046875 0 
L 35.40625 40.484375 
L 25.09375 0 
L 15.96875 0 
L 0.875 52.296875 
z
" id="Helvetica-119"/>
      </defs>
      <use xlink:href="#Helvetica-82"/>
      <use x="72.216797" xlink:href="#Helvetica-97"/>
      <use x="127.832031" xlink:href="#Helvetica-119"/>
     </g>
    </g>
    <g id="line2d_23">
     <path d="M 740.4775 62.370625 
L 766.4775 62.370625 
" style="fill:none;stroke:#000000;stroke-linecap:square;"/>
    </g>
    <g id="line2d_24"/>
    <g id="text_21">
     <!-- Smoothed -->
     <g style="fill:#555555;" transform="translate(776.8775 66.920625)scale(0.13 -0.13)">
      <defs>
       <path d="M 6.453125 52.296875 
L 15.140625 52.296875 
L 15.140625 44.875 
Q 18.265625 48.734375 20.796875 50.484375 
Q 25.140625 53.46875 30.671875 53.46875 
Q 36.921875 53.46875 40.71875 50.390625 
Q 42.875 48.640625 44.625 45.21875 
Q 47.5625 49.421875 51.515625 51.4375 
Q 55.46875 53.46875 60.40625 53.46875 
Q 70.953125 53.46875 74.75 45.84375 
Q 76.8125 41.75 76.8125 34.8125 
L 76.8125 0 
L 67.671875 0 
L 67.671875 36.328125 
Q 67.671875 41.546875 65.0625 43.5 
Q 62.453125 45.453125 58.6875 45.453125 
Q 53.515625 45.453125 49.78125 41.984375 
Q 46.046875 38.53125 46.046875 30.421875 
L 46.046875 0 
L 37.109375 0 
L 37.109375 34.125 
Q 37.109375 39.453125 35.84375 41.890625 
Q 33.84375 45.5625 28.375 45.5625 
Q 23.390625 45.5625 19.3125 41.703125 
Q 15.234375 37.84375 15.234375 27.734375 
L 15.234375 0 
L 6.453125 0 
z
" id="Helvetica-109"/>
       <path d="M 6.453125 71.96875 
L 15.234375 71.96875 
L 15.234375 45.21875 
Q 18.359375 49.171875 20.84375 50.78125 
Q 25.09375 53.5625 31.453125 53.5625 
Q 42.828125 53.5625 46.875 45.609375 
Q 49.078125 41.265625 49.078125 33.546875 
L 49.078125 0 
L 40.046875 0 
L 40.046875 32.953125 
Q 40.046875 38.71875 38.578125 41.40625 
Q 36.1875 45.703125 29.59375 45.703125 
Q 24.125 45.703125 19.671875 41.9375 
Q 15.234375 38.1875 15.234375 27.734375 
L 15.234375 0 
L 6.453125 0 
z
" id="Helvetica-104"/>
       <path d="M 12.015625 25.53125 
Q 12.015625 17.140625 15.578125 11.46875 
Q 19.140625 5.8125 27 5.8125 
Q 33.109375 5.8125 37.03125 11.0625 
Q 40.96875 16.3125 40.96875 26.125 
Q 40.96875 36.03125 36.90625 40.796875 
Q 32.859375 45.5625 26.90625 45.5625 
Q 20.265625 45.5625 16.140625 40.484375 
Q 12.015625 35.40625 12.015625 25.53125 
z
M 25.25 53.21875 
Q 31.25 53.21875 35.296875 50.6875 
Q 37.640625 49.21875 40.625 45.5625 
L 40.625 71.96875 
L 49.078125 71.96875 
L 49.078125 0 
L 41.15625 0 
L 41.15625 7.28125 
Q 38.09375 2.4375 33.890625 0.28125 
Q 29.6875 -1.859375 24.265625 -1.859375 
Q 15.53125 -1.859375 9.125 5.484375 
Q 2.734375 12.84375 2.734375 25.046875 
Q 2.734375 36.46875 8.5625 44.84375 
Q 14.40625 53.21875 25.25 53.21875 
z
" id="Helvetica-100"/>
      </defs>
      <use xlink:href="#Helvetica-83"/>
      <use x="66.699219" xlink:href="#Helvetica-109"/>
      <use x="150" xlink:href="#Helvetica-111"/>
      <use x="205.615234" xlink:href="#Helvetica-111"/>
      <use x="261.230469" xlink:href="#Helvetica-116"/>
      <use x="289.013672" xlink:href="#Helvetica-104"/>
      <use x="344.628906" xlink:href="#Helvetica-101"/>
      <use x="400.244141" xlink:href="#Helvetica-100"/>
     </g>
    </g>
   </g>
  </g>
  <g id="text_22">
   <!-- Step count per day -->
   <g style="fill:#555555;" transform="translate(385.877813 17.51625)scale(0.14 -0.14)">
    <defs>
     <path id="Helvetica-32"/>
    </defs>
    <use xlink:href="#Helvetica-83"/>
    <use x="66.699219" xlink:href="#Helvetica-116"/>
    <use x="94.482422" xlink:href="#Helvetica-101"/>
    <use x="150.097656" xlink:href="#Helvetica-112"/>
    <use x="205.712891" xlink:href="#Helvetica-32"/>
    <use x="233.496094" xlink:href="#Helvetica-99"/>
    <use x="283.496094" xlink:href="#Helvetica-111"/>
    <use x="339.111328" xlink:href="#Helvetica-117"/>
    <use x="394.726562" xlink:href="#Helvetica-110"/>
    <use x="450.341797" xlink:href="#Helvetica-116"/>
    <use x="478.125" xlink:href="#Helvetica-32"/>
    <use x="505.908203" xlink:href="#Helvetica-112"/>
    <use x="561.523438" xlink:href="#Helvetica-101"/>
    <use x="617.138672" xlink:href="#Helvetica-114"/>
    <use x="650.439453" xlink:href="#Helvetica-32"/>
    <use x="678.222656" xlink:href="#Helvetica-100"/>
    <use x="733.837891" xlink:href="#Helvetica-97"/>
    <use x="789.453125" xlink:href="#Helvetica-121"/>
   </g>
  </g>
 </g>
 <defs>
  <clipPath id="pf51e73f24a">
   <rect height="226.08" width="781.2" x="66.635156" y="27.36"/>
  </clipPath>
 </defs>
</svg>
